<svg xmlns="http://www.w3.org/2000/svg" width="1026.867" height="69.266" viewBox="0 0 1026.867 69.266">
    <defs>
        <clipPath id="huzi8912za">
            <path data-name="사각형 34294" style="fill:#fff" d="M0 0h1026.867v69.266H0z"/>
        </clipPath>
    </defs>
    <g data-name="그룹 39421">
        <g data-name="그룹 39420" style="clip-path:url(#huzi8912za)">
            <path data-name="패스 15619"
                  d="M376.661 59.5c-8.675 0-15.8-1.811-21.184-5.384-6.622-4.432-9.978-10.318-9.978-17.5 0-6.678 2.837-12.263 8.434-16.6s13.218-6.524 22.678-6.524c10.811 0 19.111 2.581 24.671 7.671a19.921 19.921 0 0 1 6.74 15.209 20.251 20.251 0 0 1-8.359 16.636c-5.537 4.3-13.277 6.485-23 6.485m-.05-44.762c-9.049 0-16.321 2.079-21.613 6.179s-7.963 9.377-7.963 15.7c0 6.791 3.169 12.357 9.421 16.54 5.1 3.384 11.9 5.1 20.206 5.1 9.314 0 16.7-2.065 21.938-6.137a19.155 19.155 0 0 0 7.887-15.746 18.842 18.842 0 0 0-6.357-14.392c-5.256-4.811-13.167-7.249-23.519-7.249m.149 33.672c-3.183.4-5.583-.053-7.644-2.018-2.027-1.934-3.222-5.86-3.222-9.812a12.67 12.67 0 0 1 3.082-8.809c2.091-2.357 13.117-16.831 17.355-19.433 4.966-3.047 12.377-1.422 14.876-.105 5.977 3.152 7.918 7.874 7.918 11.717 0 4.11-3.053 7.3-5.047 9.212-2.027 1.939-18.906 18.077-27.318 19.247m10.167-37.793c-3.708 1.968-15.1 15.592-16.78 17.955a13 13 0 0 0-2.717 8.008c0 3.65 1.072 7.309 2.859 9.013s3.81 1.954 6.471 1.579c6.952-.979 24.218-16.833 25.709-18.735a12.928 12.928 0 0 0 3.256-8.381c0-2.939-2.606-6.913-7.168-8.857-5.834-2.487-9.514-1.7-11.629-.582"
                  transform="translate(180.67 3.451)" style="fill:#fff"/>
            <path data-name="패스 15620"
                  d="M247.971 53.587c-5.95 0-10.839-1.243-14.53-3.693-4.543-3.041-6.846-7.079-6.846-12a13.879 13.879 0 0 1 5.786-11.385c3.833-2.968 9.066-4.474 15.555-4.474 7.417 0 13.111 1.77 16.923 5.262a13.66 13.66 0 0 1 4.624 10.432 13.891 13.891 0 0 1-5.732 11.413c-3.8 2.951-9.109 4.448-15.779 4.448m-.035-30.705c-6.207 0-11.195 1.425-14.826 4.238a13.12 13.12 0 0 0-5.461 10.772c0 4.659 2.175 8.477 6.462 11.347 3.5 2.321 8.16 3.5 13.86 3.5 6.389 0 11.452-1.418 15.048-4.211a13.142 13.142 0 0 0 5.411-10.8 12.926 12.926 0 0 0-4.362-9.872c-3.6-3.3-9.032-4.972-16.132-4.972m.1 23.1c-2.184.276-3.83-.037-5.243-1.386-1.39-1.326-2.21-4.019-2.21-6.73a8.681 8.681 0 0 1 2.114-6.041c1.435-1.617 9-11.547 11.9-13.33 3.405-2.091 8.49-.976 10.2-.072 4.1 2.161 5.431 5.4 5.431 8.036 0 2.819-2.094 5.01-3.462 6.319-1.39 1.33-12.968 12.4-18.738 13.2m6.973-25.925C252.469 21.4 244.657 30.75 243.5 32.371a8.923 8.923 0 0 0-1.863 5.493c0 2.5.734 5.012 1.96 6.182s2.613 1.34 4.439 1.084c4.768-.672 16.612-11.547 17.634-12.852a8.874 8.874 0 0 0 2.233-5.749c0-2.015-1.786-4.741-4.916-6.075-4-1.706-6.526-1.168-7.977-.4"
                  transform="translate(118.492 9.048)" style="fill:#fff"/>
            <path data-name="패스 15621"
                  d="M132.851 57.916h-16.28s15.35-3.542 19.88-13.819c4.161-9.436-19.88-36.328-19.88-36.328h16.28zm-10.338-1.41h8.8V9.179h-13.205s31.514 22.9 21.824 37.133c-4.776 7.013-17.418 10.193-17.418 10.193"
                  transform="translate(60.958 4.063)" style="fill:#fff"/>
            <path data-name="패스 15622"
                  d="M31.445 55.841c-6.5 0-11.142-1.713-14.488-4.261-3.309-2.52-4.167-5.441-4.167-9.078a9.631 9.631 0 0 1 3.685-8.113c2.193-1.75 4.579-2.473 7.755-3.325 6.73-1.8 9.355-2.141 11.857-2.758 2.062-.507 4.305-1.054 6.625-1.779a4.3 4.3 0 0 0-1.312-3.368c-.88-.687-2.534-1.036-4.914-1.036-3.168 0-5.553.4-7.085 1.194a6.67 6.67 0 0 0-2.84 3.472l-.2.463-20.9-1.777.18-.673a16.515 16.515 0 0 1 3.3-6.7 17.87 17.87 0 0 1 6.229-4.278 30.56 30.56 0 0 1 7.939-2 77.907 77.907 0 0 1 10.731-.694 105.394 105.394 0 0 1 14.835.836 22.11 22.11 0 0 1 9.617 3.593 12.9 12.9 0 0 1 4.314 5.394 16.061 16.061 0 0 1 1.546 6.564v18.909a18.155 18.155 0 0 0 .455 4.6 18.534 18.534 0 0 0 2.016 4.24l.535.889H46.386l-.218-.315a14.788 14.788 0 0 1-1.561-2.633 11.156 11.156 0 0 1-.492-1.677 25.274 25.274 0 0 1-4.3 2.872c-1.64.749-3.532 1.435-8.373 1.435m5.048-34.952c2.831 0 4.79.452 5.982 1.384s1.782 2.467 1.782 4.678v.422l-.486.155c-2.546.81-5.024 1.421-7.3 1.922s-4.409.752-8.836 1.77c-6.052 1.39-7.837 2.076-10.079 4.062a8.869 8.869 0 0 0-3.224 7.222 9.59 9.59 0 0 0 3.65 8.154C20.951 53.1 25.337 54.6 31.445 54.6c4.643 0 6.067-.507 7.79-1.34 1.757-.851 2.286-1.4 4.872-3.41l1.068-.83.225 1.18a15.214 15.214 0 0 0 .672 2.624 12.6 12.6 0 0 0 1.221 2.092h17.431a17.086 17.086 0 0 1-1.616-3.616 19.17 19.17 0 0 1-.492-4.873V27.513a15.009 15.009 0 0 0-1.454-6.14 11.642 11.642 0 0 0-3.879-4.884A20.431 20.431 0 0 0 48.4 13.18a103.635 103.635 0 0 0-14.558-.816 76.054 76.054 0 0 0-10.469.676 28.777 28.777 0 0 0-7.456 1.867 16.409 16.409 0 0 0-5.72 3.911 14.749 14.749 0 0 0-2.859 5.571l17.99 1.529a7.633 7.633 0 0 1 3.248-3.646c1.809-.934 4.4-1.387 7.915-1.387m-12.6 33.067c-2.824.206-12.518.8-17.827-2.662C.725 47.809-.964 42.609.51 37.369a8.008 8.008 0 0 1 4.136-5.434c3.355-1.891 7.669-.766 9.98-.474 3.025.382 26.866 4.187 29.628 3.39v2.985a13.523 13.523 0 0 1-1.1 5.463 14.325 14.325 0 0 1-7.439 7.595 33.225 33.225 0 0 1-11.829 3.058m18.835-17.864c-2.5.693-24.959-2.973-27.687-3.277-2.909-.324-3.771-.105-6.489 1.092A7.185 7.185 0 0 0 4.823 37.9c-.725 2.484-1.1 6.338 3.363 10.9 4.414 4.509 13.486 3.845 15.742 3.7a32.664 32.664 0 0 0 10.91-2.756 16.738 16.738 0 0 0 6.952-7.015 10.759 10.759 0 0 0 .931-4.895z"
                  transform="translate(0 5.819)" style="fill:#fff"/>
            <path data-name="패스 15623"
                  d="M72.581 59.182H50.6V15.117h20.582v5.164a15.451 15.451 0 0 1 4.455-4.3 15.027 15.027 0 0 1 7.676-1.832 26.531 26.531 0 0 1 10.2 2.329l.634.268-6.883 12.782S74.278 11.67 70.917 9.995c-1.256-.626-6.3-2.17-8.871.824-3.3 3.838-1.736 16.9 2.5 29.236a170.441 170.441 0 0 0 8.036 19.128m-20.446-1.239h18.91S55.132 26.6 55.566 13.851a10.335 10.335 0 0 1 4-7.462c3.053-1.9 7.9-.784 10.356.038 6.975 2.336 16.143 19.4 16.711 21.164l5.534-10.277a24.121 24.121 0 0 0-8.856-1.926 13.273 13.273 0 0 0-6.772 1.6 17.042 17.042 0 0 0-5.435 6.04l-1.457 2.418v-9.09H52.136z"
                  transform="translate(26.46 2.795)" style="fill:#fff"/>
            <path data-name="패스 15624"
                  d="M275.831 53.088H261.1V23.55h13.8v3.462a10.356 10.356 0 0 1 2.985-2.883 10.075 10.075 0 0 1 5.146-1.227 17.762 17.762 0 0 1 6.839 1.561l.425.178-4.616 8.569s-8.705-11.972-10.959-13.094c-.841-.419-4.221-1.454-5.945.553-2.211 2.572-1.164 11.328 1.675 19.6a114.107 114.107 0 0 0 5.388 12.823m-13.706-.83H274.8S264.133 31.25 264.424 22.7a6.922 6.922 0 0 1 2.682-5c2.047-1.275 5.3-.527 6.941.024 4.675 1.567 10.822 13 11.2 14.188l3.71-6.888a16.174 16.174 0 0 0-5.936-1.291 8.894 8.894 0 0 0-4.54 1.069 11.426 11.426 0 0 0-3.643 4.049l-.978 1.62V24.38h-11.735z"
                  transform="translate(136.533 8.889)" style="fill:#fff"/>
            <path data-name="패스 15625"
                  d="M633.694 59.182h-21.98V15.117h20.581v5.164a15.451 15.451 0 0 1 4.455-4.3 15.026 15.026 0 0 1 7.675-1.832 26.531 26.531 0 0 1 10.2 2.329l.634.268-6.885 12.782S635.391 11.67 632.03 9.995c-1.256-.626-6.3-2.17-8.871.824-3.3 3.838-1.736 16.9 2.5 29.236a170.443 170.443 0 0 0 8.036 19.128m-20.445-1.238h18.91S616.245 26.6 616.68 13.851a10.328 10.328 0 0 1 4-7.462c3.053-1.9 7.9-.784 10.356.038 6.975 2.336 16.143 19.4 16.711 21.164l5.534-10.277a24.121 24.121 0 0 0-8.856-1.926 13.273 13.273 0 0 0-6.772 1.6 17.041 17.041 0 0 0-5.435 6.04l-1.458 2.418v-9.09h-17.51z"
                  transform="translate(319.88 2.795)" style="fill:#fff"/>
            <path data-name="패스 15626"
                  d="M103.937 56.764a11.169 11.169 0 0 1-5.524-5.114c-1.2-2.234-7.493-20.792-7.493-20.792h-8.164V17.6h7.5V9.978L112.185.915V17.6h11.2v13.257h-11.2S91.208 44.624 88.572 50.849c-.761 1.8-.748 6.153 1.287 8.088 4.2 3.99 10.667 2.135 14.022 1.124 5.847-1.761 18.648-11.527 18.648-11.527l1.671 12.639-.673.119c-5.064.892-17.057-3.422-19.592-4.528M84.291 29.619h7.5s6.791 19.533 7.892 21.58a10.04 10.04 0 0 0 4.986 4.474c2.274.993 13.153 5.32 17.861 4.523l-1.33-9.685c-2.732 2.047-11.082 8.652-16.339 11.261-4.412 2.19-14.941 3.353-18.322-1.055a10.225 10.225 0 0 1-.554-11.658c3.812-6.366 25.552-19.439 25.552-19.439h10.312V18.84h-11.2V2.942L91.79 10.736v8.1h-7.5z"
                  transform="translate(43.275 .479)" style="fill:#fff"/>
            <path data-name="패스 15627"
                  d="M201.3 56.764a11.168 11.168 0 0 1-5.524-5.114c-1.2-2.234-7.493-20.792-7.493-20.792h-8.164V17.6h7.5V9.978L209.552.915V17.6h11.2v13.257h-11.2s-20.977 13.767-23.613 19.991c-.761 1.8-.748 6.153 1.287 8.088 4.2 3.99 10.667 2.135 14.022 1.124 5.846-1.76 18.652-11.526 18.652-11.526l1.674 12.639-.673.119c-5.064.892-17.057-3.422-19.592-4.528m-19.651-27.145h7.5s6.791 19.533 7.892 21.58a10.04 10.04 0 0 0 4.986 4.474c2.274.993 13.153 5.32 17.861 4.523l-1.328-9.686c-2.732 2.047-11.082 8.652-16.339 11.261-4.412 2.19-14.941 3.353-18.322-1.055a10.225 10.225 0 0 1-.554-11.658c3.812-6.366 25.552-19.439 25.552-19.439h10.312V18.84h-11.2V2.942l-18.86 7.794v8.1h-7.5z"
                  transform="translate(94.191 .479)" style="fill:#fff"/>
            <path data-name="패스 15628"
                  d="M167.023 57.128c-9.809 0-16.924-1.16-21.149-3.452a16.045 16.045 0 0 1-8.244-9.893l-.2-.688 21.67-1.645.2.46a7.676 7.676 0 0 0 3.209 3.847 11.541 11.541 0 0 0 5.563 1.141 11.19 11.19 0 0 0 5.879-1.279 2.474 2.474 0 0 0 1.449-2.129c0-.94-.618-1.655-1.887-2.19a41.868 41.868 0 0 0-5.834-1.631 80.678 80.678 0 0 1-8.413-2.106c-2.874-.885-5.815-1.934-7.776-4.034a13.435 13.435 0 0 1-3.154-8.408c0-2.951.821-6.847 2.958-8.993a14.776 14.776 0 0 1 8.318-4.374c3.835-.7 6.727-.627 11.216-.627a31.377 31.377 0 0 1 10.191 1.238 18.869 18.869 0 0 1 7.516 3.743 19.552 19.552 0 0 1 5.195 6.868l.362.758-20.929 1.666-.18-.492a4.833 4.833 0 0 0-2.2-2.688c-1.456-.783-18.743-1.182-20.843-1.182s-6.885.288-7.793.856a2.258 2.258 0 0 0-1.278 1.907c0 .81.5 1.389 1.575 1.821 1.249.5 22.807.97 27.164 1.389 6.8.621 11.95 1.5 15.3 2.621a17.464 17.464 0 0 1 7.912 4.933 10.69 10.69 0 0 1 2.761 7.08 12.1 12.1 0 0 1-2.9 7.546c-1.925 2.432-4.983 4.388-9.09 5.815-4.063 1.41-9.639 2.124-16.576 2.124m-27.676-12.936a14.893 14.893 0 0 0 7.391 8.454c3.967 2.15 10.795 3.242 20.293 3.242 6.727 0 12.1-.682 15.968-2.024 3.819-1.326 6.648-3.125 8.405-5.344a11.045 11.045 0 0 0 2.653-6.879 9.632 9.632 0 0 0-2.487-6.375 15.98 15.98 0 0 0-7.237-4.493c-3.216-1.075-8.227-1.928-14.89-2.536-4.6-.443-26.245-.937-27.672-1.511-2-.807-2.424-2.039-2.424-2.93a3.4 3.4 0 0 1 1.872-2.884c1.2-.752 6.236-1.118 8.734-1.118 2.409 0 19.982.469 21.7 1.395a6 6 0 0 1 2.612 2.875l17.663-1.4a17.835 17.835 0 0 0-4.474-5.682 17.24 17.24 0 0 0-6.894-3.436 32.749 32.749 0 0 0-9.361-.969 35.275 35.275 0 0 0-8.617.656 12.4 12.4 0 0 0-7.22 3.745c-1.91 1.919-2.429 5.8-2.429 8.461a10.853 10.853 0 0 0 2.683 7.141c1.785 1.91 3.346 2.347 5.848 3.416a44.23 44.23 0 0 0 6.809 2.275 47.993 47.993 0 0 1 5.955 1.93c2.246.944 2.717 2.309 2.717 3.29a3.613 3.613 0 0 1-2.061 3.114 12.873 12.873 0 0 1-6.806 1.531 13.277 13.277 0 0 1-6.434-1.358 8.713 8.713 0 0 1-3.58-4z"
                  transform="translate(71.868 5.818)" style="fill:#fff"/>
            <path data-name="패스 15629"
                  d="M552.382 56.764a11.169 11.169 0 0 1-5.524-5.114c-1.2-2.234-7.493-20.792-7.493-20.792H531.2V17.6h7.5V9.978L560.63.915V17.6h11.2v13.257h-11.2s-20.977 13.767-23.613 19.991c-.761 1.8-.748 6.153 1.287 8.088 4.2 3.99 10.667 2.135 14.022 1.124 5.846-1.761 18.648-11.527 18.648-11.527l1.674 12.639-.673.119c-5.064.892-17.057-3.422-19.592-4.528m-19.647-27.144h7.5s6.791 19.533 7.892 21.58a10.04 10.04 0 0 0 4.986 4.474c2.274.993 13.154 5.32 17.861 4.523l-1.328-9.686c-2.732 2.047-11.082 8.652-16.339 11.261-4.412 2.19-14.941 3.353-18.322-1.055a10.225 10.225 0 0 1-.554-11.658c3.812-6.366 25.552-19.439 25.552-19.439h10.312V18.84h-11.2V2.942l-18.86 7.794v8.1h-7.5z"
                  transform="translate(277.778 .479)" style="fill:#fff"/>
            <path data-name="패스 15630"
                  d="M409.65 61.556h-16.28s15.35-4.292 19.88-16.742C417.411 33.383 393.37.805 393.37.805h16.28zm-10.338-1.707h8.8V2.512h-13.205S426.42 30.258 416.73 47.5c-4.776 8.5-17.418 12.349-17.418 12.349"
                  transform="translate(205.703 .422)" style="fill:#fff"/>
            <path data-name="패스 15631"
                  d="M433.279 61.556H417s15.351-4.292 19.882-16.742C441.039 33.383 417 .805 417 .805h16.282zm-10.338-1.707h8.8V2.512h-13.206s31.513 27.746 21.824 44.988c-4.776 8.5-17.418 12.349-17.418 12.349"
                  transform="translate(218.058 .422)" style="fill:#fff"/>
            <path data-name="패스 15632"
                  d="M335.36 57.127a66.6 66.6 0 0 1-14.279-1.293 27.934 27.934 0 0 1-9.971-4.234 22.731 22.731 0 0 1-6.535-6.865 20.77 20.77 0 0 1-2.994-10.6 20.254 20.254 0 0 1 3.5-11.1 21.931 21.931 0 0 1 5.77-5.959 28.144 28.144 0 0 1 7.517-3.92 50.484 50.484 0 0 1 15.54-2.019c8.781 0 15.6 1.3 20.253 3.858a21.2 21.2 0 0 1 9.875 11.3l.266.7-20.716 2.225-.172-.527a6.639 6.639 0 0 0-2.983-3.791c-1.442-.845-31.817-1.273-34.305-1.273a10.579 10.579 0 0 0-7.592 2.7c-1.949 1.82-2.938 4.657-2.938 8.431 0 3.34.975 5.894 2.9 7.592a10.567 10.567 0 0 0 7.331 2.536c2.484 0 32.973-.515 34.645-1.529a9.4 9.4 0 0 0 3.8-4.773l.19-.486 20.861 1.9-.227.693a21.322 21.322 0 0 1-5.4 8.684 25.613 25.613 0 0 1-9.611 5.72 45.634 45.634 0 0 1-14.727 2.027m-1.45-44.763c-6.067 0-8.8.413-12.657 1.692a23.076 23.076 0 0 0-6.427 3.679 19.713 19.713 0 0 0-8.239 16.391c0 4.1.568 7.77 2.042 10.225a17.549 17.549 0 0 0 5.31 6.139 23.664 23.664 0 0 0 8.806 4.1 52.493 52.493 0 0 0 12.614 1.3 43.816 43.816 0 0 0 14.118-1.925 24.074 24.074 0 0 0 9.035-5.37 20.112 20.112 0 0 0 4.858-7.522l-17.833-1.636a10.462 10.462 0 0 1-4.142 4.9c-1.943 1.18-32.744 1.779-35.568 1.779a12.368 12.368 0 0 1-8.464-2.939c-2.19-1.934-3.3-4.77-3.3-8.428 0-4.08 1.115-7.19 3.312-9.241a12.361 12.361 0 0 1 8.754-3.134c2.819 0 33.5.509 35.207 1.511a7.8 7.8 0 0 1 3.376 3.95l17.581-1.888a19.9 19.9 0 0 0-8.993-9.942c-4.4-2.417-10.921-3.643-19.388-3.643"
                  transform="translate(153.772 5.819)" style="fill:#fff"/>
            <path data-name="패스 15633"
                  d="M521.733 57.127a66.6 66.6 0 0 1-14.279-1.293 27.934 27.934 0 0 1-9.971-4.238 22.732 22.732 0 0 1-6.535-6.865 20.771 20.771 0 0 1-2.97-10.6 20.243 20.243 0 0 1 3.477-11.1 21.931 21.931 0 0 1 5.77-5.959 28.145 28.145 0 0 1 7.517-3.92 50.484 50.484 0 0 1 15.54-2.019c8.781 0 15.6 1.3 20.253 3.858a21.2 21.2 0 0 1 9.875 11.3l.267.7-20.716 2.225-.172-.527a6.639 6.639 0 0 0-2.983-3.791c-1.442-.845-31.817-1.273-34.305-1.273a10.579 10.579 0 0 0-7.592 2.7c-1.949 1.82-2.938 4.657-2.938 8.431 0 3.34.975 5.894 2.9 7.592a10.567 10.567 0 0 0 7.331 2.536c2.484 0 32.973-.515 34.645-1.529a9.4 9.4 0 0 0 3.8-4.773l.19-.486L551.7 40l-.227.693a21.323 21.323 0 0 1-5.4 8.684 25.612 25.612 0 0 1-9.611 5.72 45.635 45.635 0 0 1-14.727 2.027m-1.45-44.763c-6.067 0-8.8.413-12.657 1.692a23.076 23.076 0 0 0-6.427 3.679 19.713 19.713 0 0 0-8.239 16.391c0 4.1.568 7.77 2.042 10.225a17.549 17.549 0 0 0 5.31 6.139 23.661 23.661 0 0 0 8.807 4.1 52.471 52.471 0 0 0 12.613 1.3 43.816 43.816 0 0 0 14.117-1.925 24.074 24.074 0 0 0 9.035-5.37 20.111 20.111 0 0 0 4.858-7.522l-17.833-1.636a10.454 10.454 0 0 1-4.142 4.9c-1.943 1.18-32.744 1.779-35.568 1.779a12.368 12.368 0 0 1-8.464-2.939c-2.19-1.934-3.3-4.77-3.3-8.428 0-4.08 1.113-7.19 3.311-9.241a12.361 12.361 0 0 1 8.754-3.134c2.819 0 33.5.509 35.207 1.511a7.8 7.8 0 0 1 3.376 3.95l17.581-1.888a19.9 19.9 0 0 0-8.993-9.942c-4.4-2.417-10.921-3.643-19.388-3.643"
                  transform="translate(251.232 5.819)" style="fill:#fff"/>
            <path data-name="패스 15634"
                  d="M129.812 2.11a7.256 7.256 0 0 0-4.55-1.246 7.464 7.464 0 0 0-4.174 1.049 3.463 3.463 0 0 0-1.709 2.936 3.487 3.487 0 0 0 2.007 3.09 7.828 7.828 0 0 0 3.883.862 7.556 7.556 0 0 0 4.231-1.046 3.461 3.461 0 0 0 1.7-2.941 3.371 3.371 0 0 0-1.383-2.7m-5.5.231a5.745 5.745 0 0 1 3.555.908 1.916 1.916 0 0 1 .821 1.566 2.016 2.016 0 0 1-1.037 1.732 6.02 6.02 0 0 1-3.331.777 6.245 6.245 0 0 1-3.075-.65 2.087 2.087 0 0 1-1.258-1.823 2.014 2.014 0 0 1 1.049-1.724 5.893 5.893 0 0 1 3.276-.784"
                  transform="translate(62.426 .452)" style="fill:#fff"/>
            <path data-name="패스 15635"
                  d="M593.549 59.5c-8.673 0-15.8-1.811-21.182-5.384-6.623-4.432-9.978-10.318-9.978-17.5 0-6.678 2.836-12.263 8.434-16.6s13.216-6.524 22.678-6.524c10.811 0 19.111 2.581 24.671 7.671a19.926 19.926 0 0 1 6.74 15.209 20.248 20.248 0 0 1-8.361 16.636c-5.536 4.3-13.275 6.485-23 6.485m-.051-44.76c-9.049 0-16.323 2.079-21.613 6.179s-7.963 9.377-7.963 15.7c0 6.791 3.169 12.357 9.421 16.54 5.1 3.384 11.9 5.1 20.2 5.1 9.316 0 16.7-2.065 21.939-6.137a19.155 19.155 0 0 0 7.887-15.746 18.841 18.841 0 0 0-6.357-14.392c-5.255-4.811-13.167-7.249-23.518-7.249m.148 33.672c-3.181.4-5.581-.053-7.642-2.018-2.027-1.934-3.221-5.86-3.221-9.812a12.669 12.669 0 0 1 3.081-8.809c2.091-2.357 13.117-16.831 17.355-19.433 4.966-3.047 12.377-1.422 14.876-.105 5.977 3.152 7.918 7.874 7.918 11.717 0 4.11-3.055 7.3-5.047 9.212-2.029 1.939-18.906 18.077-27.32 19.247m10.169-37.793c-3.708 1.968-15.1 15.592-16.78 17.955a13 13 0 0 0-2.717 8.008c0 3.65 1.071 7.309 2.859 9.013s3.81 1.954 6.469 1.579c6.952-.979 24.219-16.833 25.71-18.735a12.928 12.928 0 0 0 3.256-8.381c0-2.939-2.606-6.913-7.169-8.857-5.834-2.487-9.515-1.7-11.629-.582"
                  transform="translate(294.086 3.451)" style="fill:#fff"/>
            <path data-name="패스 15636"
                  d="M467.108 57.127c-7.117 0-12.814-.828-16.935-2.463a23.908 23.908 0 0 1-10.339-7.854 20.311 20.311 0 0 1-4.088-12.6 20.258 20.258 0 0 1 8.209-16.7c5.438-4.237 13.027-6.384 22.553-6.384 7.689 0 13.863.959 18.353 2.852a22.429 22.429 0 0 1 10.37 8.322c2.348 3.6 3.538 8.32 3.538 14.04v2.475l-46.591-.146c.043 2.428-.34 10.248.359 14.253.883 5.061 2.887 6.541 4.957 7.738 2.732 1.582 6.383 1.468 8.76 1.47 5.586 0 7.379-2.493 8.268-4.305 1.9-3.873 1.643-15.718 1.643-15.718l22.108.437-.6.838c-3.063 4.806-6.483 8.739-11.562 10.868-4.445 1.863-10.82 2.875-19.009 2.875m-.6-44.763c-9.115 0-16.344 2.032-21.487 6.037a19.16 19.16 0 0 0-7.738 15.806 19.252 19.252 0 0 0 3.861 11.955 22.451 22.451 0 0 0 9.707 7.391c3.908 1.549 9.378 2.336 16.257 2.336 7.933 0 14.213-.644 18.284-2.731 5.955-3.052 7.966-5.673 10.339-9.556l-15.36-.2c-.478 6.43-.562 11.1-2.4 14.247-1.4 2.4-3.794 5.8-11.826 5.8-3.283 0-6.573-.376-9.468-2.131-3.136-1.9-4.066-3.713-4.962-8.285-.959-4.907-.49-15.6-.49-15.6l46.014.148v-1.235c0-5.518-1.132-10.047-3.361-13.463a21.024 21.024 0 0 0-9.724-7.8c-4.269-1.8-10.2-2.712-17.642-2.712m11.649 18.59h-21.747l.088-.684A10.591 10.591 0 0 1 459 24.191a10.937 10.937 0 0 1 8.356-3.347 11.421 11.421 0 0 1 7.315 2.236c1.838 1.47 2.982 3.89 3.4 7.194zm-20.03-1.238h18.316c-.437-2.658-1.395-4.592-2.852-5.755a9.6 9.6 0 0 0-6.233-1.878 9.217 9.217 0 0 0-7.135 2.859 8.982 8.982 0 0 0-2.1 4.774"
                  transform="translate(227.862 5.819)" style="fill:#fff"/>
            <path data-name="패스 15637"
                  d="M687.712 14.367a6.925 6.925 0 0 0-1.307-.857c-.39-1.986-.457-2.693-2.629-5.851-2.63-3.824-5.291-5.132-9.322-6.533A28.314 28.314 0 0 0 665.507 0a22.792 22.792 0 0 0-10.493 2.4 20.07 20.07 0 0 0-8.187 6.616 16.637 16.637 0 0 0-3.178 10.106 18.057 18.057 0 0 0 .09 1.989q.089.8.177 1.418l.087.585h17.364l-.084-.76a22.462 22.462 0 0 1-.084-2.274c0-4.374 9.671-6.794 13.1-6.839a34.2 34.2 0 0 1 7.768.611 28.612 28.612 0 0 1 .212 3.859 13.409 13.409 0 0 1-1.608 6.016 22.745 22.745 0 0 1-2.4 3.888c-.224.283-.436.55-.644.807-1.4.254-3.177.521-5.01.795-5.857.88-10.089 1.57-11.181 2.434-1.342 1.06-1.514 2.837-1.514 4.269v5.032h11.043v-2.51c0-.111 0-.241-.008-.382-.023-.7-.056-1.767.432-2.237a44.294 44.294 0 0 1 3.618-2.922 58.863 58.863 0 0 0 4.668-3.658c.233-.05.436-.1.6-.143 3.771-1.039 7.539-3.043 8.542-4.444a8.467 8.467 0 0 0 1.462-5.37 6.427 6.427 0 0 0-2.566-4.918m-3.075 9.392a13.551 13.551 0 0 0 2.108-6.373c0-.751-.03-1.46-.093-2.138l.05.041a5.3 5.3 0 0 1 2.266 4.045 7.334 7.334 0 0 1-1.162 4.579c-.731.937-2.956 2.173-6.247 3.433a28.892 28.892 0 0 0 3.078-3.586m-24.8-3.678c0 .664.011 1.215.033 1.668h-14.682a41.821 41.821 0 0 1-.093-.786 16.6 16.6 0 0 1-.084-1.84 15.311 15.311 0 0 1 2.913-9.3 18.676 18.676 0 0 1 7.641-6.177 22.17 22.17 0 0 1 9.94-2.284 17.6 17.6 0 0 1 7.435 1.168c2.811 1.125 5.067 3.079 7.313 6.338a10.422 10.422 0 0 1 1.555 3.559 39.065 39.065 0 0 0-7.9-.48c-3.876.078-14.076 2.7-14.076 8.129m9.76 18.074v1.432h-8.311V35.92c0-1.147.125-2.557 1.094-3.3 1.025-.784 7.181-1.738 11.675-2.434.824-.128 1.613-.25 2.344-.367a22.438 22.438 0 0 1-2.208 1.986c-.527.42-1.017.8-1.467 1.151-.966.752-1.729 1.346-2.283 1.881-.876.844-.857 2.333-.845 3.317"
                  transform="translate(336.579 .001)" style="fill:#fff"/>
            <path data-name="패스 15638" d="M653.647 46.943h13.918V29.48h-13.918zm12.553-1.366h-11.187V30.846H666.2z"
                  transform="translate(341.808 15.416)" style="fill:#fff"/>
        </g>
    </g>
</svg>
