<?xml version="1.0" encoding="utf-8"?>
<!-- Generator: Adobe Illustrator 26.5.0, SVG Export Plug-In . SVG Version: 6.00 Build 0)  -->
<svg version="1.1" id="_레이어_1" xmlns="http://www.w3.org/2000/svg" x="0px"
     y="0px" viewBox="0 0 273.3 102.5" style="enable-background:new 0 0 273.3 102.5;" xml:space="preserve">
<style type="text/css">
	.st0{fill:#FFFFFF;}
</style>
    <g id="_그룹_39556">
	<path id="_패스_15621" class="st0" d="M153.5,30.4h-7.7c0,0,7.2-1.7,9.4-6.5c2-4.5-9.4-17.1-9.4-17.1h7.7V30.4z M148.6,29.7h4.1
		V7.4h-6.2c0,0,14.9,10.8,10.3,17.5C154.6,28.2,148.6,29.7,148.6,29.7"/>
        <path id="_패스_15622" class="st0" d="M76.9,30.3c-2.4,0.1-4.8-0.6-6.8-2c-1.4-1-2.1-2.6-2-4.3c-0.1-1.5,0.6-2.9,1.7-3.8
		c1.1-0.8,2.3-1.3,3.7-1.6c3.2-0.8,4.4-1,5.6-1.3c1-0.2,2-0.5,3.1-0.8c0-0.6-0.2-1.2-0.6-1.6c-0.7-0.4-1.5-0.6-2.3-0.5
		c-1.1-0.1-2.3,0.1-3.3,0.6c-0.6,0.4-1.1,1-1.3,1.6l-0.1,0.2l-9.9-0.8l0.1-0.3c0.3-1.2,0.8-2.2,1.6-3.2c0.8-0.9,1.8-1.6,2.9-2
		c1.2-0.5,2.5-0.8,3.8-0.9c1.7-0.2,3.4-0.3,5.1-0.3c2.3,0,4.7,0.1,7,0.4c1.6,0.2,3.2,0.8,4.5,1.7c0.9,0.7,1.6,1.5,2,2.5
		c0.5,1,0.7,2,0.7,3.1v8.9c0,0.7,0.1,1.5,0.2,2.2c0.2,0.7,0.6,1.4,0.9,2l0.2,0.4h-9.8l-0.1-0.2c-0.3-0.4-0.5-0.8-0.7-1.2
		c-0.1-0.3-0.2-0.5-0.2-0.8c-0.6,0.5-1.3,1-2,1.4C79.6,30.2,78.2,30.4,76.9,30.3 M79.3,13.8c1-0.1,2,0.1,2.8,0.7
		c0.6,0.6,0.9,1.4,0.8,2.2v0.2l-0.2,0.1c-1.2,0.4-2.4,0.7-3.4,0.9s-2.1,0.3-4.2,0.8c-2.9,0.7-3.7,1-4.8,1.9c-1,0.8-1.6,2.1-1.5,3.4
		c-0.1,1.5,0.6,2.9,1.7,3.9c1.8,1.3,4.1,2,6.4,1.9c1.3,0.1,2.5-0.1,3.7-0.6c0.8-0.4,1.6-1,2.3-1.6l0.5-0.4l0.1,0.6
		c0.1,0.4,0.2,0.8,0.3,1.2c0.2,0.3,0.3,0.7,0.6,1h8.2c-0.3-0.5-0.6-1.1-0.8-1.7c-0.2-0.8-0.2-1.5-0.2-2.3v-8.9c0-1-0.2-2-0.7-2.9
		c-0.4-0.9-1-1.7-1.8-2.3c-1.3-0.8-2.7-1.4-4.2-1.6c-2.3-0.3-4.6-0.4-6.9-0.4c-1.7,0-3.3,0.1-4.9,0.3c-1.2,0.1-2.4,0.4-3.5,0.9
		c-1,0.4-1.9,1-2.7,1.8c-0.6,0.8-1.1,1.7-1.3,2.6l8.5,0.7c0.3-0.7,0.8-1.3,1.5-1.7C76.7,13.9,78,13.7,79.3,13.8 M73.3,29.4
		c-1.3,0.1-5.9,0.4-8.4-1.3c-2.3-1.3-3.4-4-2.6-6.6c0.2-1.1,1-2,2-2.6c1.6-0.9,3.6-0.4,4.7-0.2c1.4,0.2,12.7,2,14,1.6v1.4
		c0,0.9-0.2,1.8-0.5,2.6c-0.7,1.6-1.9,2.9-3.5,3.6C77.1,28.8,75.2,29.3,73.3,29.4 M82.2,21c-1.2,0.3-11.8-1.4-13.1-1.5
		c-1.1-0.2-2.1,0-3.1,0.5c-0.8,0.4-1.4,1-1.8,1.9c-0.3,1.2-0.5,3,1.6,5.2c2.1,2.1,6.4,1.8,7.4,1.8c1.8-0.1,3.5-0.6,5.2-1.3
		c1.4-0.8,2.6-1.9,3.3-3.3c0.3-0.7,0.5-1.5,0.4-2.3C82.2,21.8,82.2,21,82.2,21z"/>
        <path id="_패스_15623" class="st0" d="M108.8,30.4H98.4V9.6h9.7v2.4c0.6-0.8,1.3-1.5,2.1-2c1.1-0.6,2.4-0.9,3.6-0.9
		c1.7,0,3.3,0.4,4.8,1.1l0.3,0.1l-3.3,6c0,0-6.1-8.4-7.7-9.2c-0.6-0.3-3-1-4.2,0.4c-1.6,1.8-0.8,8,1.2,13.8
		C106,24.5,107.3,27.5,108.8,30.4 M99.1,29.8h8.9c0,0-7.5-14.8-7.3-20.8c0.1-1.4,0.8-2.7,1.9-3.5c1.4-0.9,3.7-0.4,4.9,0
		c3.3,1.1,7.6,9.2,7.9,10l2.6-4.8c-1.3-0.6-2.7-0.9-4.2-0.9c-1.1,0-2.2,0.2-3.2,0.8c-1.1,0.7-1.9,1.7-2.6,2.8l-0.7,1.1v-4.3h-8.3
		L99.1,29.8L99.1,29.8z"/>
        <path id="_패스_15626" class="st0" d="M131.5,28.2c-1.1-0.5-2-1.3-2.6-2.4c-0.6-1-3.5-9.8-3.5-9.8h-3.8V9.7h3.5V6.1l10.3-4.3v7.9
		h5.3V16h-5.3c0,0-9.9,6.5-11.1,9.4c-0.4,1.3-0.2,2.7,0.6,3.8c2,1.9,5,1,6.6,0.5c2.8-0.8,8.8-5.4,8.8-5.4l0.8,6l-0.3,0.1
		C138.4,30.8,132.7,28.7,131.5,28.2 M122.2,15.4h3.5c0,0,3.2,9.2,3.7,10.2c0.5,0.9,1.4,1.7,2.4,2.1c1.1,0.5,6.2,2.5,8.4,2.1
		l-0.6-4.6c-2.4,2-5,3.7-7.7,5.3c-2.1,1-7.1,1.6-8.7-0.5c-1.2-1.6-1.3-3.8-0.3-5.5c1.8-3,12.1-9.2,12.1-9.2h4.9v-5.1h-5.3V2.8
		l-8.9,3.7v3.8h-3.5L122.2,15.4L122.2,15.4z"/>
        <path id="_패스_15627" class="st0" d="M201.5,28.2c-1.1-0.5-2-1.3-2.6-2.4c-0.6-1-3.5-9.8-3.5-9.8h-3.9V9.7h3.5V6.1l10.4-4.3v7.9
		h5.3V16h-5.3c0,0-9.9,6.5-11.1,9.4c-0.4,1.3-0.2,2.7,0.6,3.8c2,1.9,5,1,6.6,0.5c2.8-0.8,8.8-5.4,8.8-5.4l0.8,6l-0.3,0.1
		C208.3,30.8,202.7,28.7,201.5,28.2 M192.2,15.4h3.5c0,0,3.2,9.2,3.7,10.2c0.5,0.9,1.4,1.7,2.4,2.1c1.1,0.5,6.2,2.5,8.4,2.1
		l-0.6-4.6c-2.4,2-5,3.7-7.7,5.3c-2.1,1-7.1,1.6-8.6-0.5c-1.2-1.6-1.3-3.8-0.3-5.5c1.8-3,12.1-9.2,12.1-9.2h4.9v-5.1h-5.3V2.8
		l-8.9,3.7v3.8h-3.5V15.4L192.2,15.4z"/>
        <path id="_패스_15628" class="st0" d="M174.8,30.9c-4.6,0-8-0.6-10-1.6c-1.9-0.9-3.3-2.6-3.9-4.7l-0.1-0.3l10.2-0.8l0.1,0.2
		c0.3,0.8,0.8,1.4,1.5,1.8c0.8,0.4,1.7,0.6,2.6,0.5c1,0.1,1.9-0.2,2.8-0.6c0.4-0.2,0.7-0.6,0.7-1c0-0.4-0.3-0.8-0.9-1
		c-0.9-0.3-1.8-0.6-2.8-0.8c-1.3-0.3-2.7-0.6-4-1c-1.4-0.3-2.6-1-3.7-1.9c-1.9-2.4-2-5.8-0.1-8.2c1.1-1.1,2.4-1.8,3.9-2.1
		c1.8-0.3,3.5-0.4,5.3-0.3c1.6-0.1,3.2,0.1,4.8,0.6c1.3,0.3,2.5,0.9,3.6,1.8c1.1,0.9,1.9,2,2.4,3.2l0.2,0.4l-9.9,0.8l-0.1-0.2
		c-0.2-0.5-0.6-1-1-1.3c-0.7-0.4-8.9-0.6-9.8-0.6c-1.2,0-2.5,0.1-3.7,0.4c-0.4,0.2-0.6,0.5-0.6,0.9c0,0.4,0.2,0.7,0.7,0.9
		c0.6,0.2,10.8,0.5,12.8,0.7c2.4,0.2,4.9,0.6,7.2,1.2c1.4,0.4,2.7,1.2,3.7,2.3c0.8,0.9,1.3,2.1,1.3,3.3c0,1.3-0.5,2.6-1.4,3.6
		c-1.1,1.3-2.6,2.2-4.3,2.7C180,30.6,177.4,31,174.8,30.9 M161.7,24.8c0.6,1.7,1.9,3.2,3.5,4c1.9,1,5.1,1.5,9.6,1.5
		c2.6,0.1,5.1-0.2,7.5-0.9c1.5-0.4,2.9-1.3,4-2.5c0.8-0.9,1.2-2.1,1.2-3.2c0-1.1-0.4-2.2-1.2-3c-0.9-1-2.1-1.7-3.4-2.1
		c-2.3-0.7-4.6-1-7-1.2c-2.2-0.2-12.4-0.4-13.1-0.7c-0.9-0.4-1.1-1-1.1-1.4c0-0.6,0.4-1.1,0.9-1.4c1.3-0.4,2.7-0.6,4.1-0.5
		c1.1,0,9.4,0.2,10.2,0.7c0.6,0.3,1,0.8,1.2,1.4l8.3-0.7c-0.5-1-1.2-1.9-2.1-2.7c-0.9-0.8-2.1-1.3-3.2-1.6c-1.4-0.4-2.9-0.5-4.4-0.5
		c-1.4-0.1-2.7,0-4.1,0.3c-1.3,0.2-2.5,0.8-3.4,1.8c-0.9,0.9-1.1,2.7-1.1,4c0,1.2,0.4,2.4,1.3,3.4c0.8,0.8,1.7,1.3,2.8,1.6
		c1,0.4,2.1,0.8,3.2,1.1c1,0.2,1.9,0.5,2.8,0.9c1.1,0.5,1.3,1.1,1.3,1.5c0,0.6-0.4,1.2-1,1.5c-1,0.5-2.1,0.8-3.2,0.7
		c-1.1,0-2.1-0.2-3-0.6c-0.8-0.4-1.3-1.1-1.7-1.9L161.7,24.8L161.7,24.8z"/>
        <path id="_패스_15634" class="st0" d="M152.7,2.4c-0.6-0.4-1.4-0.6-2.1-0.6c-0.7,0-1.4,0.1-2,0.5c-0.5,0.3-0.8,0.8-0.8,1.4
		c0,0.6,0.4,1.2,0.9,1.5c0.6,0.3,1.2,0.4,1.8,0.4c0.7,0,1.4-0.1,2-0.5c0.5-0.3,0.8-0.8,0.8-1.4C153.4,3.2,153.2,2.7,152.7,2.4
		 M150.1,2.5c0.6,0,1.2,0.1,1.7,0.4c0.2,0.2,0.4,0.4,0.4,0.7c0,0.3-0.2,0.7-0.5,0.8c-0.5,0.3-1,0.4-1.6,0.4c-0.5,0-1-0.1-1.4-0.3
		c-0.4-0.2-0.6-0.5-0.6-0.9c0-0.3,0.2-0.7,0.5-0.8C149.1,2.6,149.6,2.5,150.1,2.5"/>
</g>
    <g id="_그룹_39557">
	<path id="_패스_15620" class="st0" d="M128.1,59.3c-2.4,0.1-4.8-0.5-6.9-1.7c-3.1-1.9-4.2-5.9-2.3-9.1c0.5-0.8,1.1-1.4,1.8-2
		c2.1-1.5,4.7-2.2,7.3-2.1c3.5,0,6.2,0.8,8,2.5c1.4,1.2,2.2,3,2.2,4.9c0,2.1-1,4.1-2.7,5.4C133.4,58.7,130.7,59.4,128.1,59.3
		 M128.1,44.8c-2.5-0.1-4.9,0.6-7,2c-2.8,2-3.4,5.9-1.4,8.8c0.5,0.7,1.1,1.3,1.8,1.7c2,1.2,4.2,1.8,6.5,1.7c2.5,0.1,5-0.6,7.1-2
		c1.6-1.2,2.6-3.1,2.6-5.1c0-1.8-0.7-3.5-2.1-4.7C134,45.6,131.4,44.8,128.1,44.8 M128.1,55.7c-0.9,0.2-1.8,0-2.5-0.7
		c-0.7-0.9-1.1-2-1-3.2c0-1,0.3-2.1,1-2.8c0.7-0.8,4.2-5.4,5.6-6.3c1.5-0.7,3.3-0.7,4.8,0c1.5,0.7,2.5,2.1,2.6,3.8
		c-0.1,1.2-0.7,2.2-1.6,3C136.3,50.1,130.8,55.3,128.1,55.7 M131.4,43.4c-1.2,0.6-4.9,5.1-5.4,5.8c-0.6,0.7-0.9,1.7-0.9,2.6
		c-0.1,1.1,0.3,2.1,0.9,2.9c0.6,0.5,1.4,0.7,2.1,0.5c2.2-0.3,7.8-5.4,8.3-6.1c0.7-0.8,1-1.7,1.1-2.7c-0.2-1.3-1.1-2.4-2.3-2.9
		C133.3,42.8,132.1,43.1,131.4,43.4"/>
        <path id="_패스_15624" class="st0" d="M149.8,59h-6.9V45h6.5v1.6c0.4-0.5,0.9-1,1.4-1.4c0.7-0.4,1.6-0.6,2.4-0.6
		c1.1,0,2.2,0.3,3.2,0.7l0.2,0.1l-2.2,4.1c0,0-4.1-5.7-5.2-6.2c-0.4-0.2-2-0.7-2.8,0.3c-1,1.2-0.6,5.3,0.8,9.2
		C147.9,55,148.8,57,149.8,59 M143.3,58.6h6c0,0-5-9.9-4.9-13.9c0.1-0.9,0.5-1.8,1.3-2.4c1.1-0.4,2.2-0.4,3.3,0
		c2.2,0.7,5.1,6.1,5.3,6.7l1.8-3.2c-0.9-0.4-1.8-0.6-2.8-0.6c-0.8,0-1.5,0.2-2.1,0.5c-0.7,0.5-1.3,1.1-1.7,1.9l-0.5,0.8v-2.9h-5.5
		L143.3,58.6L143.3,58.6z"/>
</g>
    <g id="_그룹_39558">
	<path id="_패스_15619" class="st0" d="M51.7,99.5c-3.5,0.2-7-0.7-10-2.5c-4.6-2.7-6.1-8.6-3.3-13.2c0.7-1.1,1.6-2.1,2.6-2.9
		c2.6-2,6.2-3.1,10.7-3.1c5.1,0,9,1.2,11.6,3.6c2.1,1.8,3.2,4.4,3.2,7.2c0,3.1-1.4,6-4,7.8C59.9,98.4,56.3,99.5,51.7,99.5
		 M51.7,78.3c-4.3,0-7.7,1-10.2,2.9c-4.1,3-5,8.7-2,12.8c0.7,1,1.6,1.8,2.7,2.5c2.9,1.7,6.2,2.6,9.5,2.4c4.4,0,7.9-1,10.4-2.9
		c2.4-1.7,3.8-4.5,3.7-7.4c0-2.6-1.1-5.1-3-6.8C60.3,79.5,56.6,78.3,51.7,78.3 M51.7,94.2c-1.3,0.3-2.6-0.1-3.6-0.9
		c-1.1-1.3-1.6-2.9-1.5-4.6c-0.1-1.5,0.5-3,1.5-4.2c1-1.1,6.2-7.9,8.2-9.2c2.3-1.4,5.8-0.7,7-0.1c2.2,1,3.7,3.1,3.7,5.5
		c0,1.9-1.4,3.4-2.4,4.3C63.7,86.1,55.7,93.7,51.7,94.2 M56.5,76.4c-1.8,0.9-7.1,7.4-7.9,8.5c-0.8,1.1-1.3,2.4-1.3,3.8
		c-0.1,1.5,0.4,3.1,1.3,4.3c0.8,0.7,2,1,3,0.8c3.3-0.5,11.4-7.9,12.1-8.8c1-1.1,1.5-2.5,1.5-3.9c0-1.4-1.2-3.3-3.4-4.2
		C59.3,75.5,57.5,75.9,56.5,76.4"/>
        <path id="_패스_15625" class="st0" d="M238.7,99h-10.4V78.2h9.7v2.4c0.6-0.8,1.3-1.5,2.1-2c1.1-0.6,2.4-0.9,3.6-0.9
		c1.7,0,3.3,0.4,4.8,1.1l0.3,0.1l-3.2,6c0,0-6.1-8.4-7.7-9.2c-0.6-0.3-3-1-4.2,0.4c-1.6,1.8-0.8,8,1.2,13.8
		C236,93.1,237.3,96.1,238.7,99 M229.1,98.4h8.9c0,0-7.5-14.8-7.3-20.8c0.1-1.4,0.8-2.7,1.9-3.5c1.4-0.9,3.7-0.4,4.9,0
		c3.3,1.1,7.6,9.2,7.9,10l2.6-4.8c-1.3-0.6-2.7-0.9-4.2-0.9c-1.1,0-2.2,0.2-3.2,0.8c-1.1,0.7-1.9,1.7-2.6,2.8l-0.7,1.1v-4.3h-8.3
		V98.4z"/>
        <path id="_패스_15629" class="st0" d="M180.5,96.8c-1.1-0.5-2-1.3-2.6-2.4c-0.6-1.1-3.5-9.8-3.5-9.8h-3.9v-6.3h3.5v-3.6l10.4-4.3
		v7.9h5.3v6.3h-5.3c0,0-9.9,6.5-11.1,9.4c-0.4,1.3-0.2,2.7,0.6,3.8c2,1.9,5,1,6.6,0.5c2.8-0.8,8.8-5.4,8.8-5.4l0.8,6l-0.3,0.1
		C187.3,99.4,181.6,97.3,180.5,96.8 M171.2,84h3.5c0,0,3.2,9.2,3.7,10.2c0.5,0.9,1.4,1.7,2.4,2.1c1.1,0.5,6.2,2.5,8.4,2.1l-0.6-4.6
		c-2.4,2-5,3.7-7.7,5.3c-2.1,1-7.1,1.6-8.6-0.5c-1.2-1.6-1.3-3.8-0.3-5.5c1.8-3,12.1-9.2,12.1-9.2h4.9v-5.1h-5.3v-7.5l-8.9,3.7v3.8
		h-3.5V84L171.2,84z"/>
        <path id="_패스_15630" class="st0" d="M79.1,99h-7.7c0,0,7.2-2,9.4-7.9c2-5.4-9.4-20.8-9.4-20.8h7.7V99z M74.2,98.2h4.2V71.1
		h-6.2c0,0,14.9,13.1,10.3,21.2C80.2,96.4,74.2,98.2,74.2,98.2"/>
        <path id="_패스_15631" class="st0" d="M96.1,99h-7.7c0,0,7.2-2,9.4-7.9c2-5.4-9.4-20.8-9.4-20.8h7.7V99z M91.2,98.2h4.2V71.1
		h-6.2c0,0,14.9,13.1,10.3,21.2C97.2,96.4,91.2,98.2,91.2,98.2"/>
        <path id="_패스_15632" class="st0" d="M19.5,99.5c-2.3,0-4.5-0.2-6.7-0.6c-1.7-0.4-3.3-1-4.7-2c-1.2-0.9-2.3-2-3.1-3.2
		c-0.9-1.5-1.4-3.2-1.4-5c0-1.9,0.6-3.7,1.7-5.2c0.7-1.1,1.6-2.1,2.7-2.8c1.1-0.8,2.3-1.4,3.6-1.8c2.4-0.7,4.8-1,7.3-0.9
		c4.1,0,7.4,0.6,9.6,1.8c2.1,1.2,3.8,3.1,4.7,5.3l0.1,0.3l-9.8,1.1L23.3,86c-0.2-0.8-0.7-1.4-1.4-1.8s-15-0.6-16.2-0.6
		c-1.3-0.1-2.6,0.4-3.6,1.3c-1,1.1-1.5,2.5-1.4,4c-0.1,1.3,0.4,2.6,1.4,3.6c1,0.8,2.2,1.2,3.5,1.2c1.2,0,15.6-0.2,16.4-0.7
		c0.8-0.5,1.5-1.3,1.8-2.2l0.1-0.2l9.8,0.9l-0.1,0.3c-0.5,1.6-1.4,3-2.5,4.1c-1.3,1.2-2.8,2.1-4.5,2.7
		C24.2,99.2,21.9,99.5,19.5,99.5 M18.8,78.4c-2-0.1-4.1,0.2-6,0.8c-1.1,0.4-2.1,1-3,1.7c-2.5,1.8-3.9,4.7-3.9,7.7
		c-0.1,1.7,0.2,3.3,1,4.8c0.6,1.1,1.5,2.1,2.5,2.9c1.2,0.9,2.7,1.6,4.2,1.9c1.9,0.4,4,0.6,5.9,0.6c2.3,0.1,4.5-0.2,6.7-0.9
		c1.6-0.5,3-1.4,4.3-2.5c1-1,1.8-2.2,2.3-3.6l-8.4-0.8c-0.4,1-1.1,1.8-2,2.3C21.4,94,6.9,94.3,5.5,94.3c-1.5,0.1-2.9-0.4-4-1.4
		c-1.1-1-1.6-2.5-1.6-4c-0.1-1.6,0.4-3.2,1.6-4.4c1.1-1,2.6-1.5,4.1-1.5c1.3,0,15.8,0.2,16.6,0.7c0.7,0.4,1.3,1.1,1.6,1.9l8.3-0.9
		c-0.8-2-2.3-3.7-4.2-4.7C25.9,78.9,22.8,78.3,18.8,78.4"/>
        <path id="_패스_15633" class="st0" d="M153.5,99.5c-2.3,0-4.5-0.2-6.7-0.6c-1.7-0.4-3.3-1-4.7-2c-1.2-0.9-2.3-2-3.1-3.2
		c-0.9-1.5-1.4-3.2-1.4-5c0-1.9,0.6-3.7,1.6-5.2c0.7-1.1,1.6-2.1,2.7-2.8c1.1-0.8,2.3-1.4,3.6-1.8c2.4-0.7,4.9-1,7.3-0.9
		c4.1,0,7.4,0.6,9.6,1.8c2.1,1.2,3.8,3.1,4.7,5.3l0.1,0.3l-9.8,1.1l-0.1-0.2c-0.2-0.8-0.7-1.4-1.4-1.8c-0.7-0.4-15-0.6-16.2-0.6
		c-1.3-0.1-2.6,0.4-3.6,1.3c-1,1.1-1.5,2.5-1.4,4c-0.1,1.3,0.4,2.6,1.4,3.6c1,0.8,2.2,1.2,3.5,1.2c1.2,0,15.6-0.2,16.4-0.7
		c0.8-0.5,1.5-1.3,1.8-2.2l0.1-0.2l9.8,0.9l-0.1,0.3c-0.5,1.6-1.4,3-2.6,4.1c-1.3,1.2-2.8,2.1-4.5,2.7
		C158.2,99.2,155.8,99.5,153.5,99.5 M152.8,78.4c-2-0.1-4.1,0.2-6,0.8c-1.1,0.4-2.1,1-3,1.7c-2.5,1.8-3.9,4.7-3.9,7.7
		c-0.1,1.7,0.2,3.3,1,4.8c0.6,1.1,1.5,2.1,2.5,2.9c1.2,0.9,2.6,1.6,4.2,1.9c1.9,0.4,3.9,0.6,5.9,0.6c2.3,0.1,4.5-0.2,6.7-0.9
		c1.6-0.5,3.1-1.4,4.3-2.5c1-1,1.8-2.2,2.3-3.6l-8.4-0.8c-0.4,1-1.1,1.8-1.9,2.3c-0.9,0.6-15.4,0.8-16.8,0.8c-1.5,0.1-2.9-0.4-4-1.4
		c-1.1-1-1.6-2.5-1.6-4c-0.1-1.6,0.4-3.2,1.6-4.4c1.1-1,2.6-1.5,4.1-1.5c1.3,0,15.8,0.2,16.6,0.7c0.7,0.4,1.3,1.1,1.6,1.9l8.3-0.9
		c-0.8-2-2.3-3.7-4.2-4.7C159.9,78.9,156.8,78.3,152.8,78.4"/>
        <path id="_패스_15635" class="st0" d="M207.6,99.5c-3.5,0.2-7-0.7-10-2.5c-4.6-2.7-6.1-8.6-3.4-13.2c0.7-1.1,1.6-2.1,2.6-2.9
		c2.6-2,6.2-3.1,10.7-3.1c5.1,0,9,1.2,11.6,3.6c2.1,1.8,3.2,4.4,3.2,7.2c0,3.1-1.4,6-3.9,7.8C215.8,98.4,212.2,99.5,207.6,99.5
		 M207.5,78.3c-4.3,0-7.7,1-10.2,2.9c-4.1,3-5,8.7-2,12.8c0.7,1,1.6,1.8,2.7,2.5c2.9,1.7,6.2,2.6,9.5,2.4c4.4,0,7.9-1,10.4-2.9
		c2.4-1.7,3.8-4.5,3.7-7.4c0-2.6-1.1-5.1-3-6.8C216.2,79.5,212.4,78.3,207.5,78.3 M207.6,94.2c-1.3,0.3-2.6-0.1-3.6-0.9
		c-1.1-1.3-1.6-2.9-1.5-4.6c-0.1-1.5,0.5-3,1.4-4.2c1-1.1,6.2-7.9,8.2-9.2c2.3-1.4,5.8-0.7,7-0.1c2.2,1,3.7,3.1,3.7,5.5
		c0,1.9-1.4,3.4-2.4,4.3C219.5,86.1,211.6,93.7,207.6,94.2 M212.4,76.4c-1.8,0.9-7.1,7.4-7.9,8.5c-0.8,1.1-1.3,2.4-1.3,3.8
		c-0.1,1.5,0.4,3.1,1.4,4.3c0.8,0.7,2,1,3.1,0.8c3.3-0.5,11.4-7.9,12.1-8.8c1-1.1,1.5-2.5,1.5-3.9c0-1.4-1.2-3.3-3.4-4.2
		C215.2,75.5,213.4,75.9,212.4,76.4"/>
        <path id="_패스_15636" class="st0" d="M116.7,99.5c-2.7,0.1-5.4-0.3-8-1.2c-1.9-0.8-3.6-2-4.9-3.7c-1.3-1.7-2-3.8-1.9-5.9
		c-0.1-3.1,1.4-6,3.9-7.9c2.6-2,6.2-3,10.6-3c2.9-0.1,5.9,0.3,8.7,1.3c2,0.8,3.7,2.2,4.9,3.9c1.2,2,1.8,4.3,1.7,6.6v1.2l-22-0.1
		c-0.1,2.2,0,4.5,0.2,6.7c0.4,2.4,1.4,3.1,2.3,3.6c1.3,0.6,2.7,0.8,4.1,0.7c2.6,0,3.5-1.2,3.9-2c0.9-1.8,0.8-7.4,0.8-7.4l10.4,0.2
		l-0.3,0.4c-1.2,2.2-3.1,4-5.5,5.1C122.7,99.1,119.7,99.6,116.7,99.5 M116.4,78.4c-4.3,0-7.7,1-10.1,2.8c-2.3,1.8-3.7,4.5-3.7,7.5
		c0,2,0.6,4,1.8,5.6c1.2,1.6,2.8,2.8,4.6,3.5c2.5,0.8,5.1,1.2,7.7,1.1c3.7,0,6.7-0.3,8.6-1.3c2.1-0.9,3.8-2.5,4.9-4.5l-7.2-0.1
		c-0.2,3-0.3,5.2-1.1,6.7c-0.7,1.1-1.8,2.7-5.6,2.7c-1.6,0.1-3.1-0.3-4.5-1c-1.5-0.9-1.9-1.8-2.3-3.9c-0.3-2.4-0.4-4.9-0.2-7.4
		l21.7,0.1v-0.6c0.1-2.2-0.4-4.4-1.6-6.3c-1.1-1.7-2.7-2.9-4.6-3.7C122,78.7,119.2,78.3,116.4,78.4 M121.9,87.1h-10.3l0-0.3
		c0.1-1.1,0.5-2.1,1.2-2.9c1-1.1,2.5-1.6,3.9-1.6c1.2-0.1,2.5,0.3,3.4,1.1c1,0.9,1.5,2.1,1.6,3.4L121.9,87.1L121.9,87.1z
		 M112.4,86.6h8.6c-0.1-1-0.6-2-1.3-2.7c-0.8-0.6-1.9-0.9-2.9-0.9c-1.3-0.1-2.5,0.4-3.4,1.3C112.8,84.9,112.5,85.7,112.4,86.6"/>
        <path id="_패스_15637" class="st0" d="M272.1,76.5c-0.2-0.2-0.4-0.3-0.6-0.4c-0.1-1-0.6-2-1.2-2.8c-1-1.5-2.6-2.6-4.4-3.1
		c-1.4-0.4-2.8-0.6-4.2-0.5c-1.7,0-3.4,0.4-5,1.1c-1.5,0.7-2.9,1.8-3.9,3.1c-1,1.4-1.5,3.1-1.5,4.8c0,0.3,0,0.6,0,0.9
		c0,0.2,0.1,0.5,0.1,0.7l0,0.3h8.2l0-0.4c0-0.4,0-0.7,0-1.1c0-2.1,4.6-3.2,6.2-3.2c1.2,0,2.5,0.1,3.7,0.3c0.1,0.6,0.1,1.2,0.1,1.8
		c0,1-0.3,2-0.8,2.8c-0.3,0.7-0.7,1.3-1.1,1.8c-0.1,0.1-0.2,0.3-0.3,0.4c-0.7,0.1-1.5,0.2-2.4,0.4c-2.8,0.4-4.8,0.7-5.3,1.2
		c-0.5,0.5-0.8,1.3-0.7,2v2.4h5.2v-1.4c0-0.3,0-0.8,0.2-1.1c0.5-0.5,1.1-0.9,1.7-1.4c0.8-0.5,1.5-1.1,2.2-1.7c0.1,0,0.2-0.1,0.3-0.1
		c1.5-0.3,2.9-1.1,4-2.1c0.5-0.7,0.8-1.6,0.7-2.5C273.3,78,272.8,77.1,272.1,76.5 M270.6,81c0.6-0.9,0.9-1.9,1-3c0-0.3,0-0.7,0-1
		l0,0c0.6,0.4,1,1.1,1.1,1.9c0.1,0.8-0.1,1.5-0.5,2.2c-0.9,0.7-1.9,1.3-3,1.6C269.7,82.2,270.2,81.6,270.6,81 M258.9,79.3
		c0,0.3,0,0.6,0,0.8H252c0-0.1,0-0.2,0-0.4c0-0.3,0-0.6,0-0.9c0-1.6,0.4-3.1,1.4-4.4c0.9-1.3,2.2-2.3,3.6-2.9
		c1.5-0.7,3.1-1.1,4.7-1.1c1.2-0.1,2.4,0.1,3.5,0.6c1.4,0.6,2.6,1.7,3.5,3c0.4,0.5,0.6,1.1,0.7,1.7c-1.2-0.2-2.5-0.3-3.7-0.2
		C263.7,75.5,258.9,76.7,258.9,79.3 M263.5,87.8v0.7h-3.9v-1.7c-0.1-0.6,0.1-1.1,0.5-1.6c0.5-0.4,3.4-0.8,5.5-1.2
		c0.4-0.1,0.8-0.1,1.1-0.2c-0.3,0.3-0.7,0.7-1,0.9c-0.2,0.2-0.5,0.4-0.7,0.5c-0.5,0.3-0.8,0.6-1.1,0.9
		C263.6,86.7,263.5,87.3,263.5,87.8"/>
        <path id="_패스_15638" class="st0" d="M258.5,99.2h6.6V91h-6.6V99.2z M264.4,98.5h-5.3v-6.9h5.3V98.5z"/>
</g>
</svg>
