<svg xmlns="http://www.w3.org/2000/svg" width="18.898" height="15.949" viewBox="0 0 18.898 15.949">
    <path data-name="패스 15619" d="M7.236 1.106a.841.841 0 0 0-1.469 0L.273 11.069a.755.755 0 0 0 .7 1.086h3.7v3.768a.709.709 0 0 0 .7.7h2.182a.709.709 0 0 0 .7-.7v-3.769H7.236a.831.831 0 0 1-.83-.7.817.817 0 0 1 .064-.384l3.066-5.559z" transform="translate(-.193 -.675)" style="fill:#505050"/>
    <path data-name="패스 15620" d="M405.063 1.106a.841.841 0 0 1 1.469 0l5.493 9.963a.755.755 0 0 1-.7 1.086h-3.641v3.768a.709.709 0 0 1-.7.7h-2.3a.709.709 0 0 1-.7-.7v-3.769H405a.831.831 0 0 0 .83-.7.817.817 0 0 0-.064-.384L402.7 5.513z" transform="translate(-393.209 -.675)" style="fill:#505050"/>
</svg>
