<svg xmlns="http://www.w3.org/2000/svg" width="17.778" height="16" viewBox="0 0 17.778 16">
    <defs>
        <clipPath id="su0gyxco5a">
            <path data-name="사각형 34149" style="fill:#505050" d="M0 0h17.778v16H0z"/>
        </clipPath>
    </defs>
    <g data-name="그룹 37640">
        <g data-name="그룹 37615">
            <g data-name="그룹 37614" style="clip-path:url(#su0gyxco5a)">
                <path data-name="패스 15517" d="m3.617 16.812.062-.1 3.751-5.868a.128.128 0 0 1 .225.016c.627 1.4 1.167 3.151.914 4.238a6.626 6.626 0 0 1-.738 1.613 2.978 2.978 0 0 1-.141.238.128.128 0 0 1-.107.056H3.727a.128.128 0 0 1-.11-.2" transform="translate(-2.559 -7.676)" style="fill:#505050"/>
                <path data-name="패스 15518" d="M17.778 10.227v.929a.133.133 0 0 1-.08.121A4.62 4.62 0 0 0 16 12.433C14.945 13.9 14.139 16 12.338 16H4.822A4.83 4.83 0 0 1 0 11.161v-.086a.129.129 0 0 1 .129-.129h4.19a.143.143 0 0 1 .136.158 1.432 1.432 0 0 0 .149.8 1.475 1.475 0 0 0 1.322.821H8v-1.614H5.95a.132.132 0 0 1-.107-.207l.074-.11c.194-.276.471-.7.747-1.191a9.373 9.373 0 0 0 .517-1.033c.03-.064.053-.129.077-.193.04-.112.081-.218.111-.323.03-.089.053-.182.077-.27a4.165 4.165 0 0 0 .1-.945c0-.129-.006-.264-.018-.393s-.024-.281-.042-.422a4.349 4.349 0 0 0-.058-.376 6.27 6.27 0 0 0-.119-.563l-.016-.071c-.035-.129-.065-.252-.107-.381-.117-.4-.252-.8-.394-1.167a7.779 7.779 0 0 0-.17-.428c-.087-.212-.176-.4-.258-.587-.042-.083-.077-.159-.112-.236s-.082-.175-.123-.258c-.029-.064-.063-.123-.087-.182l-.253-.468a.083.083 0 0 1 .093-.12l1.585.43h.01l.209.058.23.065.084.026V.824A.819.819 0 0 1 8.815 0a.8.8 0 0 1 .576.241.828.828 0 0 1 .239.582v1.4l.17.047a.13.13 0 0 1 .038.019l.176.133c.059.047.123.105.2.164.153.123.335.281.535.464.053.046.1.093.153.141.258.24.547.521.822.833.077.087.153.176.23.27s.159.188.23.281c.093.125.194.253.282.388.041.064.089.129.129.193.113.17.212.347.307.523.04.082.081.17.117.258a3.788 3.788 0 0 1 .241.716.919.919 0 0 1 .034.159v.012a1.364 1.364 0 0 1 .03.224 2.393 2.393 0 0 1-.042.739 2.707 2.707 0 0 1-.087.31c-.035.1-.071.206-.117.305a4.148 4.148 0 0 1-.318.6c-.04.071-.088.147-.135.218s-.105.147-.153.216a4.462 4.462 0 0 1-.206.265 2.8 2.8 0 0 1-.2.252c-.1.117-.194.228-.293.335-.059.07-.123.141-.188.2s-.129.135-.188.194c-.1.1-.182.176-.252.24l-.163.15a.133.133 0 0 1-.087.033H9.629v1.625h1.588a1.487 1.487 0 0 0 .966-.357 11.656 11.656 0 0 0 .982-.966.125.125 0 0 1 .061-.037l4.387-1.27a.129.129 0 0 1 .164.124" style="fill:#505050"/>
            </g>
        </g>
    </g>
</svg>
