<svg xmlns="http://www.w3.org/2000/svg" width="19" height="15" viewBox="0 0 19 15">
    <defs>
        <clipPath id="rzgathma3a">
            <path data-name="사각형 34151" transform="translate(0 -.171)" style="fill:#505050" d="M0 0h19v15H0z"/>
        </clipPath>
    </defs>
    <g data-name="그룹 37623">
        <g data-name="그룹 37622" transform="translate(0 .171)" style="clip-path:url(#rzgathma3a)">
            <path data-name="패스 15520" d="M15.7 1.242A14.75 14.75 0 0 0 11.877 0c-.165.308-.357.722-.49 1.051a13.594 13.594 0 0 0-4.238 0A11.418 11.418 0 0 0 6.654 0a14.7 14.7 0 0 0-3.828 1.245 17 17 0 0 0-2.748 11.1 15.111 15.111 0 0 0 4.69 2.484 12.137 12.137 0 0 0 1-1.71 9.757 9.757 0 0 1-1.582-.8c.133-.1.262-.208.388-.317a10.5 10.5 0 0 0 9.378 0c.127.109.257.216.388.317a9.706 9.706 0 0 1-1.585.8 12.089 12.089 0 0 0 1 1.71 15.084 15.084 0 0 0 4.693-2.485A16.98 16.98 0 0 0 15.7 1.242m-9.512 8.867A1.838 1.838 0 0 1 4.522 8.15a1.828 1.828 0 0 1 1.666-1.96 1.817 1.817 0 0 1 1.667 1.96 1.826 1.826 0 0 1-1.666 1.959m6.158 0A1.838 1.838 0 0 1 10.68 8.15a1.828 1.828 0 0 1 1.666-1.96 1.817 1.817 0 0 1 1.666 1.96 1.827 1.827 0 0 1-1.666 1.959" style="fill:#505050"/>
        </g>
    </g>
</svg>
