<svg xmlns="http://www.w3.org/2000/svg" width="18" height="18" viewBox="0 0 18 18">
    <g data-name="Icon feather-globe">
        <path data-name="패스 15512" d="M11.25 2.25a9 9 0 0 1 6.364 15.364A9 9 0 0 1 4.886 4.886 8.941 8.941 0 0 1 11.25 2.25zm0 16.744a7.744 7.744 0 1 0-7.744-7.744 7.753 7.753 0 0 0 7.744 7.744z" transform="translate(-2.25 -2.25)" style="fill:#505050"/>
        <path data-name="패스 15513" d="M19.622 18.75H2.878a.762.762 0 0 1 0-1.5h16.744a.762.762 0 0 1 0 1.5z" transform="translate(-2.25 -9)" style="fill:#505050"/>
        <path data-name="패스 15514" d="M15.97 2.25a.822.822 0 0 1 .556.206 12.389 12.389 0 0 1 4.164 8.781v.026a12.389 12.389 0 0 1-4.164 8.781.852.852 0 0 1-1.111 0 12.389 12.389 0 0 1-4.164-8.781v-.026a12.389 12.389 0 0 1 4.164-8.781.822.822 0 0 1 .555-.206zm3.22 9a11.1 11.1 0 0 0-3.22-7.406 11.1 11.1 0 0 0-3.22 7.406 11.1 11.1 0 0 0 3.22 7.406 11.1 11.1 0 0 0 3.219-7.406z" transform="translate(-6.97 -2.25)" style="fill:#505050"/>
    </g>
</svg>
