<svg data-name="그룹 37644" xmlns="http://www.w3.org/2000/svg" width="19" height="12.052" viewBox="0 0 19 12.052">
    <defs>
        <clipPath id="tj0vyyknga">
            <path data-name="사각형 34153" style="fill:#505050" d="M0 0h19v12.052H0z"/>
        </clipPath>
    </defs>
    <g data-name="그룹 37626" style="clip-path:url(#tj0vyyknga)">
        <path data-name="패스 15522" d="M2.059.854a2.561 2.561 0 0 1 2.906-.2A8.7 8.7 0 0 1 7.63 4.1L7.481.09a2.9 2.9 0 0 1-1.919.075C4.22-.152.606-.32.084 2.643a3.482 3.482 0 0 0 2.627 4.285c.466.168 3.26 1.006 3.652 1.9S7 11.833 4.351 11.753C1.953 11.68.215 7.263.215 7.263L.2 12.051s.565-.741 2.869-.232c2.7.6 5.067-.382 5.142-3.382S4.8 4.85 4.239 4.655C4.073 4.6.1 3.425 2.059.854" transform="translate(0 .001)" style="fill:#505050"/>
        <path data-name="패스 15523" d="M98.56 1.764a2.238 2.238 0 0 1 1.261 1.7c.117 1.192 0 8.179 0 8.179a2.22 2.22 0 0 1-1.169 1.751h4.863a2.284 2.284 0 0 1-1.155-1.64c-.048-.474-.055-2.347-.047-4.322.011-2.6.047-5.384.047-5.384s2.515-.447 2.85 2.739-2.645 2.646-2.813 2.646v.091s.349.019.626.545 2.984 5.326 2.984 5.326h3.345a7.055 7.055 0 0 1-1.522-1.79c-.579-1.031-2.46-4.081-2.46-4.081a2.752 2.752 0 0 0 2.424-2.648 3.27 3.27 0 0 0-2.805-3.107z" transform="translate(-90.352 -1.617)" style="fill:#505050"/>
    </g>
</svg>
