<svg xmlns="http://www.w3.org/2000/svg" width="18.284" height="14.627" viewBox="0 0 18.284 14.627">
    <path data-name="Icon metro-twitter" d="M20.854 6.549a7.593 7.593 0 0 1-2.154.581 3.715 3.715 0 0 0 1.649-2.043 7.582 7.582 0 0 1-2.382.9 3.774 3.774 0 0 0-2.738-1.166 3.722 3.722 0 0 0-3.751 3.689 3.651 3.651 0 0 0 .1.842 10.706 10.706 0 0 1-7.734-3.859 3.631 3.631 0 0 0-.508 1.857A3.676 3.676 0 0 0 5 10.423a3.781 3.781 0 0 1-1.7-.462v.046a3.71 3.71 0 0 0 3.009 3.621 3.815 3.815 0 0 1-1.694.063 3.748 3.748 0 0 0 3.5 2.564 7.6 7.6 0 0 1-4.659 1.581 7.726 7.726 0 0 1-.895-.052 10.74 10.74 0 0 0 5.75 1.659A10.513 10.513 0 0 0 18.994 8.938q0-.24-.011-.478a7.556 7.556 0 0 0 1.872-1.911z" transform="translate(-2.571 -4.817)" style="fill:#505050"/>
</svg>
