<svg xmlns="http://www.w3.org/2000/svg" width="16" height="16.001" viewBox="0 0 16 16.001">
    <path d="M5.334 8A2.667 2.667 0 1 1 8 10.667 2.667 2.667 0 0 1 5.334 8M3.892 8A4.108 4.108 0 1 0 8 3.892 4.108 4.108 0 0 0 3.892 8m7.419-4.271a.96.96 0 1 0 .96-.96.96.96 0 0 0-.96.96M4.768 14.512a4.419 4.419 0 0 1-1.486-.275 2.488 2.488 0 0 1-.92-.6 2.473 2.473 0 0 1-.6-.92 4.419 4.419 0 0 1-.275-1.486c-.039-.843-.047-1.1-.047-3.233s.008-2.389.047-3.233a4.44 4.44 0 0 1 .275-1.486 2.488 2.488 0 0 1 .6-.92 2.47 2.47 0 0 1 .92-.6 4.419 4.419 0 0 1 1.486-.275c.843-.039 1.1-.047 3.232-.047s2.389.008 3.233.047a4.44 4.44 0 0 1 1.486.275 2.48 2.48 0 0 1 .92.6 2.483 2.483 0 0 1 .6.92 4.419 4.419 0 0 1 .275 1.486c.039.844.047 1.1.047 3.233s-.008 2.389-.047 3.233a4.436 4.436 0 0 1-.275 1.486 2.649 2.649 0 0 1-1.519 1.518 4.419 4.419 0 0 1-1.486.275c-.843.039-1.1.047-3.233.047s-2.389-.008-3.232-.047M4.7.048A5.868 5.868 0 0 0 2.76.42a3.926 3.926 0 0 0-1.417.923A3.915 3.915 0 0 0 .42 2.76 5.868 5.868 0 0 0 .048 4.7C.009 5.555 0 5.828 0 8s.009 2.445.048 3.3a5.868 5.868 0 0 0 .372 1.941 3.912 3.912 0 0 0 .923 1.417 3.923 3.923 0 0 0 1.417.923 5.872 5.872 0 0 0 1.942.372C5.556 15.991 5.828 16 8 16s2.445-.009 3.3-.048a5.868 5.868 0 0 0 1.942-.372 4.091 4.091 0 0 0 2.34-2.34 5.852 5.852 0 0 0 .372-1.942c.039-.854.048-1.126.048-3.3s-.009-2.445-.048-3.3a5.868 5.868 0 0 0-.372-1.942 3.934 3.934 0 0 0-.923-1.417A3.923 3.923 0 0 0 13.241.42 5.859 5.859 0 0 0 11.3.048C10.446.01 10.174 0 8 0S5.556.009 4.7.048" style="fill:#505050"/>
</svg>
