<svg xmlns="http://www.w3.org/2000/svg" width="24" height="24" viewBox="0 0 24 24">
    <path d="M12.25 7.41a4.836 4.836 0 1 0 4.84 4.836 4.828 4.828 0 0 0-4.84-4.836zm0 7.98a3.144 3.144 0 1 1 3.14-3.144 3.15 3.15 0 0 1-3.14 3.144zm6.161-8.177a1.128 1.128 0 1 1-1.128-1.128 1.125 1.125 0 0 1 1.128 1.127zm3.2 1.145a5.582 5.582 0 0 0-1.521-3.953 5.618 5.618 0 0 0-3.952-1.524c-1.557-.088-6.225-.088-7.782 0A5.61 5.61 0 0 0 4.404 4.4a5.6 5.6 0 0 0-1.523 3.953c-.088 1.557-.088 6.225 0 7.782a5.582 5.582 0 0 0 1.524 3.955 5.626 5.626 0 0 0 3.952 1.52c1.557.088 6.225.088 7.782 0a5.582 5.582 0 0 0 3.951-1.52 5.618 5.618 0 0 0 1.524-3.952c.088-1.561.088-6.224 0-7.781zm-2.012 9.448a3.183 3.183 0 0 1-1.793 1.793c-1.242.492-4.188.379-5.56.379s-4.322.109-5.56-.379a3.183 3.183 0 0 1-1.793-1.793c-.492-1.242-.379-4.188-.379-5.56s-.109-4.322.379-5.56A3.183 3.183 0 0 1 6.69 4.89c1.242-.492 4.188-.379 5.56-.379s4.322-.109 5.56.379a3.183 3.183 0 0 1 1.792 1.8c.492 1.242.379 4.188.379 5.56s.109 4.318-.379 5.555z"/>
    <path data-name="사각형 62" style="fill:none" d="M0 0h24v24H0z"/>
</svg>
