<svg xmlns="http://www.w3.org/2000/svg" width="720.918" height="134.507" viewBox="0 0 720.918 134.507">
    <g data-name="비스켓_로고">
        <path d="M137.508 2.073h43.437v130.151h-43.437z"/>
        <path data-name="사각형 34387" transform="translate(0 .003)" style="fill:none" d="M0 0h720.918v134.459H0z"/>
        <path d="m289.071 53.243-15.739-5.824-1.543-.574c-5.889-2.164-12.466-4.441-13.228-6.727-1.035-3.1 1.261-5.626 6.407-5.993 7.856-.564 16.436 4.986 24.329 10.546l4.735 3.332 22.72-26.709-4.431-4.14A66.748 66.748 0 0 0 267.084.003c-29.626 0-51.989 17.988-51.989 41.837 0 17.235 10.81 31.131 29.551 38.093l18.223 7.17c7.169 2.794 10.405 4.789 10.509 6.68.282 5.551-4.638 6.115-8.392 6.115-8.1 0-19.1-6.548-27.048-12.974l-4.713-3.8-25.543 28.74 4.892 4.205a79.267 79.267 0 0 0 51.133 18.393 61.155 61.155 0 0 0 39.438-12.484 39.216 39.216 0 0 0 14.9-30.614c0-18.082-9.747-30.924-28.986-38.131M426.541 55.981l43.475-53.927h-49.515l-26.69 34.828V2.054h-42.948v130.207h42.948v-34.9l6.727-8.514 26.841 43.409h48.113l-48.95-76.271zM537.509 95.908V83.674h42.072V47.325H537.49v-9.078h49.524V2.054h-92.453v130.207h94.334V95.908h-51.386zM609.856 2.054v36.193h33.97v94h42.95v-94h34.142V2.054z"/>
        <path data-name="패스 15673" d="M92.707 61.899a33.638 33.638 0 0 0 10.556-24.48c0-16.078-9.3-35.233-53.635-35.233H0v130.141h52.939c35.12 0 56.947-15.693 56.947-40.953 0-13.2-6.125-23.482-17.179-29.485zm-44.99-11.948h-8.006V32.809h8.354c16.191 0 16.191 4.676 16.191 8.091.001 2.474.001 9.051-16.539 9.051zm-8.006 30.162h10.97c20.2 0 20.2 6.4 20.2 9.841 0 3.763 0 11.591-20.2 11.591h-10.97V80.122z"/>
    </g>
</svg>
