<svg data-name="그룹 39434" xmlns="http://www.w3.org/2000/svg" width="149.351" height="27.865"
     viewBox="0 0 149.351 27.865">
    <defs>
        <clipPath id="397ozw2cfa">
            <path data-name="사각형 34329" style="fill:#fff" d="M0 0h149.351v27.865H0z"/>
        </clipPath>
    </defs>
    <path data-name="사각형 34328" transform="translate(28.486 .429)" style="fill:#fff" d="M0 0h8.998v26.963H0z"/>
    <g data-name="그룹 39430">
        <g data-name="그룹 39429" style="clip-path:url(#397ozw2cfa)">
            <path data-name="패스 15639"
                  d="m208.309 11.03-3.26-1.207-.32-.118c-1.221-.447-2.583-.919-2.741-1.393-.214-.643.261-1.165 1.327-1.241 1.628-.116 3.406 1.032 5.041 2.186l.98.691 4.707-5.534-.918-.857A13.82 13.82 0 0 0 203.754 0c-6.139 0-10.771 3.726-10.771 8.666 0 3.571 2.239 6.45 6.122 7.892l3.776 1.486c1.486.579 2.156.992 2.176 1.383.06 1.15-.961 1.267-1.738 1.267-1.679 0-3.956-1.356-5.6-2.688l-.976-.787-5.292 5.955 1.013.871a16.422 16.422 0 0 0 10.593 3.81 12.672 12.672 0 0 0 8.171-2.586 8.128 8.128 0 0 0 3.088-6.342c0-3.746-2.019-6.407-6-7.9"
                  transform="translate(-148.423 -.001)" style="fill:#fff"/>
            <path data-name="패스 15640"
                  d="m339.119 13.063 9.006-11.173h-10.257l-5.53 7.215V1.891h-8.9v26.973h8.9v-7.23l1.393-1.764 5.561 8.993h9.967z"
                  transform="translate(-250.753 -1.465)" style="fill:#fff"/>
            <path data-name="패스 15641"
                  d="M464.8 21.336V18.8h8.716v-7.53h-8.719V9.392h10.26v-7.5H455.9v26.975h19.543v-7.53z"
                  transform="translate(-353.443 -1.469)" style="fill:#fff"/>
            <path data-name="패스 15642" d="M562.186 1.894v7.5h7.038v19.473h8.9V9.392h7.073v-7.5z"
                  transform="translate(-435.845 -1.469)" style="fill:#fff"/>
            <path data-name="패스 15643"
                  d="M19.205 14.379a6.976 6.976 0 0 0 2.188-5.072c0-3.33-1.928-7.3-11.111-7.3H0V28.97h10.967c7.276 0 11.8-3.251 11.8-8.483a6.613 6.613 0 0 0-3.559-6.108m-9.323-2.474h-1.66V8.354h1.732c3.355 0 3.355.969 3.355 1.677 0 .512 0 1.874-3.427 1.874m-1.66 6.248H10.5c4.185 0 4.185 1.326 4.185 2.039 0 .779 0 2.4-4.185 2.4H8.225z"
                  transform="translate(0 -1.557)" style="fill:#fff"/>
        </g>
    </g>
</svg>
