<svg xmlns="http://www.w3.org/2000/svg" width="24" height="24" viewBox="0 0 24 24">
    <path d="M18.284 52.207c.013.181.013.362.013.543A11.8 11.8 0 0 1 6.413 64.633 11.8 11.8 0 0 1 0 62.758a8.64 8.64 0 0 0 1.009.052 8.364 8.364 0 0 0 5.185-1.784 4.184 4.184 0 0 1-3.905-2.9 5.267 5.267 0 0 0 .789.065 4.417 4.417 0 0 0 1.1-.142 4.177 4.177 0 0 1-3.349-4.1V53.9a4.206 4.206 0 0 0 1.888.53 4.183 4.183 0 0 1-1.293-5.586 11.872 11.872 0 0 0 8.612 4.37 4.715 4.715 0 0 1-.1-.957 4.181 4.181 0 0 1 7.223-2.857 8.223 8.223 0 0 0 2.651-1.009 4.165 4.165 0 0 1-1.836 2.3 8.373 8.373 0 0 0 2.405-.646 8.978 8.978 0 0 1-2.095 2.162z"
          transform="translate(1.207 -43.943)" style="fill:#fff"/>
    <path data-name="사각형 60" style="fill:none" d="M0 0h24v24H0z"/>
</svg>
