<svg data-name="그룹 1865" xmlns="http://www.w3.org/2000/svg" width="24" height="24" viewBox="0 0 24 24">
    <path data-name="사각형 60" style="fill:none" d="M0 0h24v24H0z"/>
    <path data-name="Icon awesome-youtube" d="M20.757 6.224a2.844 2.844 0 0 0-1.649-2.2C17.65 3.5 11.823 3.5 11.823 3.5s-5.831 0-7.285.521a2.844 2.844 0 0 0-1.649 2.2 43.121 43.121 0 0 0-.39 6 43.121 43.121 0 0 0 .39 6 2.785 2.785 0 0 0 1.649 2.168c1.454.521 7.285.521 7.285.521s5.831 0 7.285-.521a2.785 2.785 0 0 0 1.649-2.168 43.121 43.121 0 0 0 .39-6 43.121 43.121 0 0 0-.39-6zM9.916 15.9V8.541l4.873 3.681L9.916 15.9z"/>
</svg>
