<svg xmlns="http://www.w3.org/2000/svg" width="24" height="24" viewBox="0 0 24 24">
    <g data-name="그룹 1865">
        <path data-name="사각형 60" style="fill:none" d="M0 0h24v24H0z"/>
        <path data-name="Icon awesome-youtube" d="M19.307 7.224a2.844 2.844 0 0 0-1.649-2.2C16.2 4.5 10.373 4.5 10.373 4.5s-5.831 0-7.285.521a2.844 2.844 0 0 0-1.649 2.2 43.121 43.121 0 0 0-.39 6 43.121 43.121 0 0 0 .39 6 2.785 2.785 0 0 0 1.649 2.168c1.454.521 7.285.521 7.285.521s5.831 0 7.285-.521a2.785 2.785 0 0 0 1.649-2.168 43.121 43.121 0 0 0 .39-6 43.121 43.121 0 0 0-.39-6zM8.466 16.9V9.541l4.873 3.681L8.466 16.9z" transform="translate(.949 -2)" style="fill:#fff"/>
    </g>
</svg>
