<svg xmlns="http://www.w3.org/2000/svg" width="18" height="18" viewBox="0 0 18 18">
    <g data-name="그룹 40825">
        <g data-name="Icon feather-copy">
            <path data-name="합치기 45" d="M7.271 16a2.182 2.182 0 0 1-2.18-2.18V7.272a2.183 2.183 0 0 1 2.18-2.182h6.547A2.184 2.184 0 0 1 16 7.272v6.548A2.183 2.183 0 0 1 13.817 16zm-.725-8.728v6.548a.726.726 0 0 0 .725.726h6.547a.727.727 0 0 0 .727-.726V7.272a.726.726 0 0 0-.727-.726H7.271a.726.726 0 0 0-.725.726zm-4.364 3.637A2.185 2.185 0 0 1 0 8.728V2.183A2.185 2.185 0 0 1 2.182 0h6.546a2.183 2.183 0 0 1 2.181 2.183v.727a.727.727 0 0 1-1.454 0v-.727a.729.729 0 0 0-.727-.728H2.182a.727.727 0 0 0-.728.728v6.545a.727.727 0 0 0 .728.728h.727a.727.727 0 1 1 0 1.454z" transform="translate(1 1)" style="fill:#fff"/>
        </g>
        <path data-name="사각형 36642" transform="rotate(180 9 9)" style="fill:none" d="M0 0h18v18H0z"/>
    </g>
</svg>
