<svg xmlns="http://www.w3.org/2000/svg" width="18" height="18" viewBox="0 0 18 18">
    <g data-name="그룹 40690">
        <path data-name="합치기 44" d="M9.929 2.011a6.978 6.978 0 0 1 2.262.522 7.083 7.083 0 0 1 1.936 1.2 7.283 7.283 0 0 1 1.472 1.759 7.43 7.43 0 0 1 .873 2.2 7.492 7.492 0 0 1 .139 2.37 7.454 7.454 0 0 1-.59 2.236 7.292 7.292 0 0 1-1.242 1.935 7.123 7.123 0 0 1-1.82 1.47 6.989 6.989 0 0 1-2.185.792 6.874 6.874 0 0 1-2.263.042 6.929 6.929 0 0 1-2.16-.684 7.055 7.055 0 0 1-1.873-1.374l-1.637-1.576v2.06a.931.931 0 0 1-.919.942.932.932 0 0 1-.921-.942v-4.231a.966.966 0 0 1 .008-.13.16.16 0 0 1 0-.021.077.077 0 0 1 0-.02.152.152 0 0 0 0-.021v-.02c0-.006 0 0 0 0v-.021a.941.941 0 0 1 .2-.381.362.362 0 0 1 .026-.028.885.885 0 0 1 .312-.223.9.9 0 0 1 .358-.074h4.142a.932.932 0 0 1 .921.942.933.933 0 0 1-.921.943H4.225l1.508 1.453.021.02a5.2 5.2 0 0 0 3 1.535 5.151 5.151 0 0 0 3.3-.62 5.338 5.338 0 0 0 2.272-2.524 5.5 5.5 0 0 0 .333-3.418 5.4 5.4 0 0 0-1.739-2.937A5.192 5.192 0 0 0 9.806 3.91a5.161 5.161 0 0 0-3.237.9 5.366 5.366 0 0 0-2.062 2.709.916.916 0 0 1-1.176.574.949.949 0 0 1-.561-1.2 7.341 7.341 0 0 1 1.117-2.081 7.174 7.174 0 0 1 1.663-1.57 7 7 0 0 1 2.057-.96 6.943 6.943 0 0 1 1.887-.261c.152-.021.295-.016.435-.01z"/>
        <path data-name="사각형 36613" transform="rotate(180 9 9)" style="fill:none" d="M0 0h18v18H0z"/>
    </g>
</svg>
