<svg xmlns="http://www.w3.org/2000/svg" width="16" height="16" viewBox="0 0 16 16">
    <path data-name="패스 15593" d="M7.767 15.391 6.63 15.9a1.143 1.143 0 0 1-1.393-.373l-.73-1.009a.571.571 0 0 0-.4-.234l-1.239-.127a1.143 1.143 0 0 1-1.02-1.02L1.716 11.9a.571.571 0 0 0-.234-.4l-1.009-.73A1.143 1.143 0 0 1 .1 9.37l.509-1.136a.572.572 0 0 0 0-.467L.1 6.63a1.143 1.143 0 0 1 .374-1.393l1.009-.73a.571.571 0 0 0 .234-.4l.127-1.239a1.143 1.143 0 0 1 1.02-1.02L4.1 1.716a.571.571 0 0 0 .4-.234L5.237.474A1.143 1.143 0 0 1 6.63.1l1.137.509a.572.572 0 0 0 .467 0L9.37.1a1.143 1.143 0 0 1 1.393.373l.73 1.009a.571.571 0 0 0 .4.234l1.239.127a1.143 1.143 0 0 1 1.02 1.02l.132 1.237a.571.571 0 0 0 .234.4l1.009.73a1.143 1.143 0 0 1 .373 1.4l-.509 1.136a.572.572 0 0 0 0 .467L15.9 9.37a1.143 1.143 0 0 1-.373 1.393l-1.009.73a.571.571 0 0 0-.234.4l-.127 1.239a1.143 1.143 0 0 1-1.02 1.02l-1.239.127a.571.571 0 0 0-.4.234l-.73 1.009a1.143 1.143 0 0 1-1.398.378l-1.136-.509a.572.572 0 0 0-.467 0M4.913 6.919l-.97.97L7.2 11.145l5-5-.97-.97L7.2 9.2z" style="fill-rule:evenodd"/>
</svg>
