<svg xmlns="http://www.w3.org/2000/svg" width="18" height="18" viewBox="0 0 18 18">
    <g data-name="그룹 40825">
        <g data-name="Icon feather-copy">
            <path data-name="합치기 45" d="M8.271 17a2.182 2.182 0 0 1-2.18-2.18V8.272a2.183 2.183 0 0 1 2.18-2.182h6.547A2.184 2.184 0 0 1 17 8.272v6.548A2.183 2.183 0 0 1 14.817 17zm-.725-8.728v6.548a.726.726 0 0 0 .725.726h6.547a.727.727 0 0 0 .727-.726V8.272a.726.726 0 0 0-.727-.726H8.271a.726.726 0 0 0-.725.726zm-4.364 3.637A2.185 2.185 0 0 1 1 9.728V3.183A2.185 2.185 0 0 1 3.182 1h6.546a2.183 2.183 0 0 1 2.181 2.183v.727a.727.727 0 0 1-1.454 0v-.727a.729.729 0 0 0-.727-.728H3.182a.727.727 0 0 0-.728.728v6.545a.727.727 0 0 0 .728.728h.727a.727.727 0 1 1 0 1.454z"/>
        </g>
        <path data-name="사각형 36642" transform="rotate(180 9 9)" style="fill:none" d="M0 0h18v18H0z"/>
    </g>
</svg>
