<svg xmlns="http://www.w3.org/2000/svg" xmlns:xlink="http://www.w3.org/1999/xlink" width="108" height="108" viewBox="0 0 108 108">
  <defs>
    <style>
      .cls-1 {
        fill: #fff;
        opacity: 0.7;
      }

      .cls-2, .cls-3 {
        stroke: none;
      }

      .cls-3 {
        fill: #e6e6e6;
      }

      .cls-4 {
        filter: url(#패스_15732);
      }
    </style>
    <filter id="패스_15732" x="0" y="0" width="108" height="108" filterUnits="userSpaceOnUse">
      <feOffset dy="2" input="SourceAlpha"/>
      <feGaussianBlur stdDeviation="10" result="blur"/>
      <feFlood flood-opacity="0.161"/>
      <feComposite operator="in" in2="blur"/>
      <feComposite in="SourceGraphic"/>
    </filter>
  </defs>
  <g id="그룹_40697" data-name="그룹 40697" transform="translate(30 76) rotate(-90)">
    <g class="cls-4" transform="matrix(0, 1, -1, 0, 76, -30)">
      <g id="패스_15732-2" data-name="패스 15732" class="cls-1" transform="translate(30 76) rotate(-90)">
        <path class="cls-2" d="M 24 47.5 C 20.82729911804199 47.5 17.74976921081543 46.87873077392578 14.85289001464844 45.65346145629883 C 12.05459022521973 44.46987915039062 9.541350364685059 42.77537155151367 7.382989883422852 40.61700820922852 C 5.224629878997803 38.45864868164062 3.530119895935059 35.94541168212891 2.346539974212646 33.14710998535156 C 1.121269941329956 30.25023078918457 0.5 27.17270088195801 0.5 24 C 0.5 20.82729911804199 1.121269941329956 17.74976921081543 2.346539974212646 14.85289001464844 C 3.530119895935059 12.05459022521973 5.224629878997803 9.541350364685059 7.382989883422852 7.382989883422852 C 9.541350364685059 5.224629878997803 12.05459022521973 3.530119895935059 14.85289001464844 2.346539974212646 C 17.74976921081543 1.121269941329956 20.82729911804199 0.5 24 0.5 C 27.17270088195801 0.5 30.25023078918457 1.121269941329956 33.14710998535156 2.346539974212646 C 35.94541168212891 3.530119895935059 38.45864868164062 5.224629878997803 40.61700820922852 7.382989883422852 C 42.77537155151367 9.541350364685059 44.46987915039062 12.05459022521973 45.65346145629883 14.85289001464844 C 46.87873077392578 17.74976921081543 47.5 20.82729911804199 47.5 24 C 47.5 27.17270088195801 46.87873077392578 30.25023078918457 45.65346145629883 33.14710998535156 C 44.46987915039062 35.94541168212891 42.77537155151367 38.45864868164062 40.61700820922852 40.61700820922852 C 38.45864868164062 42.77537155151367 35.94541168212891 44.46987915039062 33.14710998535156 45.65346145629883 C 30.25023078918457 46.87873077392578 27.17270088195801 47.5 24 47.5 Z"/>
        <path class="cls-3" d="M 24 47 C 27.10541915893555 47 30.1174201965332 46.39202117919922 32.95233154296875 45.19295883178711 C 35.6910285949707 44.03458023071289 38.15084838867188 42.37606048583984 40.26345062255859 40.26345062255859 C 42.37606048583984 38.15084838867188 44.03458023071289 35.6910285949707 45.19295883178711 32.95233154296875 C 46.39202117919922 30.1174201965332 47 27.10541915893555 47 24 C 47 20.89458084106445 46.39202117919922 17.8825798034668 45.19295883178711 15.04767036437988 C 44.03458023071289 12.30897045135498 42.37606048583984 9.849149703979492 40.26345062255859 7.736549854278564 C 38.15084838867188 5.623939990997314 35.6910285949707 3.965420007705688 32.95233154296875 2.807039976119995 C 30.1174201965332 1.607980012893677 27.10541915893555 1 24 1 C 20.89458084106445 1 17.8825798034668 1.607980012893677 15.04767036437988 2.807039976119995 C 12.30897045135498 3.965420007705688 9.849149703979492 5.623939990997314 7.736549854278564 7.736549854278564 C 5.623939990997314 9.849149703979492 3.965420007705688 12.30897045135498 2.807039976119995 15.04767036437988 C 1.607980012893677 17.8825798034668 1 20.89458084106445 1 24 C 1 27.10541915893555 1.607980012893677 30.1174201965332 2.807039976119995 32.95233154296875 C 3.965420007705688 35.6910285949707 5.623939990997314 38.15084838867188 7.736549854278564 40.26345062255859 C 9.849149703979492 42.37606048583984 12.30897045135498 44.03458023071289 15.04767036437988 45.19295883178711 C 17.8825798034668 46.39202117919922 20.89458084106445 47 24 47 M 24 48 C 10.7451696395874 48 -3.552713678800501e-15 37.25482940673828 -3.552713678800501e-15 24 C -3.552713678800501e-15 10.7451696395874 10.7451696395874 -3.552713678800501e-15 24 -3.552713678800501e-15 C 37.25482940673828 -3.552713678800501e-15 48 10.7451696395874 48 24 C 48 37.25482940673828 37.25482940673828 48 24 48 Z"/>
      </g>
    </g>
    <path id="패스_15721" data-name="패스 15721" d="M12.722,23.069a1.86,1.86,0,0,1-2.706,0L.558,13.138A2.069,2.069,0,0,1,.5,10.377L9.817.592a1.855,1.855,0,0,1,2.706-.01,2.068,2.068,0,0,1,0,2.833L4.613,11.82l8.119,8.416A2.068,2.068,0,0,1,12.722,23.069Z" transform="translate(36.725 16.929) rotate(90)"/>
  </g>
</svg>
