<svg xmlns="http://www.w3.org/2000/svg" width="15.904" height="12.048" viewBox="0 0 15.904 12.048">
    <g data-name="그룹 203">
        <path data-name="패스 8" d="M913.79 1414.715c-5.786 0-7.609-5.56-7.626-5.617l-.03-.093.031-.093c.02-.057 2-5.745 7.625-5.745s7.668 5.688 7.688 5.746l.034.1-.032.1c-.019.048-1.906 5.602-7.69 5.602zm-7.022-5.7a7.532 7.532 0 0 0 7.022 5.1c5 0 6.813-4.362 7.084-5.1-.285-.718-2.278-5.247-7.084-5.247-4.873 0-6.749 4.508-7.022 5.242z" transform="translate(-905.871 -1402.917)" style="stroke:#000;stroke-width:.5px"/>
        <path data-name="패스 9" d="M925.1 1418.587a2.795 2.795 0 1 1 2.8-2.795 2.8 2.8 0 0 1-2.8 2.795zm0-4.989a2.194 2.194 0 1 0 2.194 2.194 2.2 2.2 0 0 0-2.194-2.192z" transform="translate(-917.185 -1409.793)" style="stroke:#000;stroke-width:.5px"/>
    </g>
</svg>
