<svg xmlns="http://www.w3.org/2000/svg" width="18" height="18" viewBox="0 0 18 18">
    <path data-name="사각형 49" style="fill:none" d="M0 0h18v18H0z"/>
    <path data-name="패스 5" d="M-74.231 1175.814a.6.6 0 0 0 .835-.035l3.382-3.24a21.231 21.231 0 0 0 3.018-3.42c.028-.046.056-.092.082-.139a5.475 5.475 0 0 0 .568-2.462 4.142 4.142 0 0 0-3.967-4.3 4.213 4.213 0 0 0-3.311 2.294.122.122 0 0 1-.21 0 4.213 4.213 0 0 0-3.311-2.294 4.142 4.142 0 0 0-3.966 4.3c0 1.747 1.119 3.211 2.222 4.461z" transform="translate(82.638 -1159.98)" style="stroke:#000;stroke-miterlimit:10;stroke-width:2px;fill:none"/>
</svg>
