<svg xmlns="http://www.w3.org/2000/svg" width="18" height="18" viewBox="0 0 18 18">
    <g data-name="그룹 40162">
        <path data-name="사각형 34396" style="fill:none" d="M0 0h18v18H0z"/>
        <path data-name="패스 15679" d="M-301.65 1083.6a2.407 2.407 0 0 0-.972.205 17.979 17.979 0 0 1-1.937-1.6 2.411 2.411 0 0 0 .279-1.125 2.426 2.426 0 0 0-2.423-2.423 2.426 2.426 0 0 0-2.423 2.423 2.426 2.426 0 0 0 2.423 2.423 2.41 2.41 0 0 0 1.61-.618 20.074 20.074 0 0 0 1.71 1.45 2.415 2.415 0 0 0-.69 1.69 2.413 2.413 0 0 0 .691 1.691 21.091 21.091 0 0 0-1.812 1.545 2.409 2.409 0 0 0-1.508-.53 2.425 2.425 0 0 0-2.423 2.423 2.426 2.426 0 0 0 2.423 2.423 2.426 2.426 0 0 0 2.423-2.423 2.4 2.4 0 0 0-.348-1.244 18.678 18.678 0 0 1 2.006-1.666 2.4 2.4 0 0 0 .972.205 2.426 2.426 0 0 0 2.423-2.423 2.426 2.426 0 0 0-2.424-2.426zm-5.052-.961a1.564 1.564 0 0 1-1.563-1.562 1.565 1.565 0 0 1 1.563-1.563 1.565 1.565 0 0 1 1.563 1.563 1.564 1.564 0 0 1-1.561 1.564zm0 10.074a1.564 1.564 0 0 1-1.563-1.562 1.565 1.565 0 0 1 1.563-1.563 1.565 1.565 0 0 1 1.563 1.563 1.564 1.564 0 0 1-1.561 1.564zm5.052-5.128a1.564 1.564 0 0 1-1.562-1.563 1.564 1.564 0 0 1 1.562-1.562 1.564 1.564 0 0 1 1.563 1.563 1.564 1.564 0 0 1-1.563 1.564z" transform="translate(313.125 -1076.9)" style="stroke:#000"/>
    </g>
</svg>
