<svg xmlns="http://www.w3.org/2000/svg" width="18.961" height="15.169" viewBox="0 0 18.961 15.169">
    <path data-name="Icon metro-twitter" d="M18.961 1.796a7.874 7.874 0 0 1-2.234.6 3.852 3.852 0 0 0 1.71-2.113 7.863 7.863 0 0 1-2.47.929A3.914 3.914 0 0 0 13.129 0a3.86 3.86 0 0 0-3.89 3.829 3.787 3.787 0 0 0 .1.873 11.1 11.1 0 0 1-8.018-4 3.766 3.766 0 0 0-.527 1.925 3.812 3.812 0 0 0 1.731 3.187 3.921 3.921 0 0 1-1.762-.479v.048a3.848 3.848 0 0 0 3.12 3.755 3.956 3.956 0 0 1-1.754.065 3.887 3.887 0 0 0 3.63 2.66 7.884 7.884 0 0 1-4.83 1.639 8.013 8.013 0 0 1-.928-.054 11.137 11.137 0 0 0 5.963 1.721A10.9 10.9 0 0 0 17.029 4.274q0-.249-.011-.5a7.835 7.835 0 0 0 1.941-1.982z"/>
</svg>
